<svg xmlns="http://www.w3.org/2000/svg" viewBox="0 0 512 512" role="img" aria-label="meet37 app icon">
  <defs>
    <linearGradient id="outer" x1="74" y1="52" x2="438" y2="462" gradientUnits="userSpaceOnUse">
      <stop stop-color="#f8fafc"/>
      <stop offset="1" stop-color="#dbeafe"/>
    </linearGradient>
    <linearGradient id="tile" x1="124" y1="102" x2="392" y2="410" gradientUnits="userSpaceOnUse">
      <stop stop-color="#2dd4bf"/>
      <stop offset="0.55" stop-color="#14b8a6"/>
      <stop offset="1" stop-color="#0f766e"/>
    </linearGradient>
    <filter id="shadow" x="42" y="50" width="428" height="428" color-interpolation-filters="sRGB" filterUnits="userSpaceOnUse">
      <feDropShadow dx="0" dy="18" flood-color="#0f172a" flood-opacity="0.22" stdDeviation="22"/>
    </filter>
  </defs>
  <rect width="512" height="512" rx="112" fill="#0f172a"/>
  <rect x="40" y="40" width="432" height="432" rx="96" fill="url(#outer)"/>
  <g filter="url(#shadow)">
    <rect x="92" y="92" width="328" height="328" rx="88" fill="url(#tile)"/>
    <path d="M142 229c0-35.9 29.1-65 65-65h62c35.9 0 65 29.1 65 65v20l54-33v112l-54-33v20c0 35.9-29.1 65-65 65h-62c-35.9 0-65-29.1-65-65v-86Z" fill="#f8fafc"/>
    <circle cx="238" cy="272" r="38" fill="#0f766e"/>
    <circle cx="238" cy="272" r="19" fill="#99f6e4"/>
  </g>
</svg>
