<svg xmlns="http://www.w3.org/2000/svg" viewBox="0 0 64 64" role="img" aria-label="meet37 logo">
  <defs>
    <linearGradient id="bg" x1="12" y1="10" x2="54" y2="56" gradientUnits="userSpaceOnUse">
      <stop stop-color="#5eead4"/>
      <stop offset="1" stop-color="#14b8a6"/>
    </linearGradient>
  </defs>
  <rect width="64" height="64" rx="18" fill="#0f172a"/>
  <rect x="7" y="7" width="50" height="50" rx="16" fill="#111827" stroke="#334155" stroke-width="1.5"/>
  <rect x="12" y="12" width="40" height="40" rx="14" fill="url(#bg)"/>
  <path d="M22 27.5A5.5 5.5 0 0 1 27.5 22h9A5.5 5.5 0 0 1 42 27.5v1.85l6-3.6v12.5l-6-3.6v1.85A5.5 5.5 0 0 1 36.5 42h-9A5.5 5.5 0 0 1 22 36.5v-9Z" fill="#042f2e"/>
  <circle cx="32" cy="32" r="4.25" fill="#ccfbf1"/>
</svg>
