<svg xmlns="http://www.w3.org/2000/svg" viewBox="0 0 64 64" role="img" aria-label="meet37">
  <defs>
    <linearGradient id="paper" x1="8" y1="5.5" x2="56" y2="58.5" gradientUnits="userSpaceOnUse">
      <stop stop-color="#f7f4ec"/>
      <stop offset="1" stop-color="#d6cdbc"/>
    </linearGradient>
    <linearGradient id="tile" x1="14.5" y1="12" x2="50.5" y2="52.5" gradientUnits="userSpaceOnUse">
      <stop stop-color="#2dd4bf"/>
      <stop offset="0.55" stop-color="#0f766e"/>
      <stop offset="1" stop-color="#134e4a"/>
    </linearGradient>
  </defs>
  <rect width="64" height="64" rx="15" fill="#211f1b"/>
  <rect x="4.5" y="4.5" width="55" height="55" rx="14" fill="url(#paper)" stroke="#bcb2a2" stroke-width="1.5"/>
  <rect x="11" y="11" width="42" height="42" rx="12" fill="url(#tile)"/>
  <path d="M18 26.7A7.7 7.7 0 0 1 25.7 19h6.8a7.7 7.7 0 0 1 7.7 7.7v2.1l7.8-4.8v16l-7.8-4.8v2.1a7.7 7.7 0 0 1-7.7 7.7h-6.8A7.7 7.7 0 0 1 18 37.3V26.7Z" fill="#f7f4ec"/>
  <circle cx="29.5" cy="32" r="5.9" fill="#134e4a"/>
  <circle cx="29.5" cy="32" r="3.15" fill="#5eead4"/>
</svg>
