<?xml version="1.0" encoding="UTF-8"?>
<svg version="1.1" xmlns="http://www.w3.org/2000/svg" width="1254" height="1254">
<path d="M0 0 C413.82 0 827.64 0 1254 0 C1254 413.82 1254 827.64 1254 1254 C840.18 1254 426.36 1254 0 1254 C0 840.18 0 426.36 0 0 Z " fill="#020619" transform="translate(0,0)"/>
<path d="M0 0 C1.01758756 -0.00467997 2.03517512 -0.00935994 3.08359867 -0.01418173 C6.46806382 -0.02607661 9.85211991 -0.0166959 13.23658752 -0.00723267 C15.67338801 -0.01130083 18.11018665 -0.01664408 20.54698181 -0.02316284 C26.46360403 -0.03539803 32.38012135 -0.03364062 38.29674058 -0.02492492 C43.10858346 -0.01813197 47.92039437 -0.0172386 52.73224068 -0.02049637 C53.41877477 -0.02095607 54.10530887 -0.02141577 54.81264703 -0.0218894 C56.20762166 -0.02284864 57.60259627 -0.02382128 58.99757088 -0.02480717 C72.05959542 -0.03334926 85.12155666 -0.02354585 98.18357081 -0.00740607 C109.37363803 0.00599305 120.56361184 0.00367009 131.75367737 -0.01016235 C144.76946599 -0.02624427 157.78519919 -0.03252225 170.80099636 -0.02332556 C172.19096028 -0.02236999 173.5809242 -0.02142687 174.97088814 -0.02049637 C175.65465388 -0.02003354 176.33841963 -0.01957072 177.04290555 -0.01909386 C181.84438714 -0.01651157 186.64583338 -0.02085856 191.44730949 -0.02793503 C197.9193437 -0.03726449 204.39124353 -0.03055037 210.86326218 -0.01325226 C213.23394415 -0.00929668 215.60464101 -0.01040548 217.975317 -0.01704025 C221.2203958 -0.02528254 224.46491729 -0.01490139 227.70996094 0 C228.63994461 -0.00669217 229.56992828 -0.01338433 230.52809328 -0.02027929 C246.85873524 0.12439126 261.3930882 7.25954828 272.79737854 18.63095093 C286.71729669 33.23545522 291.88522208 49.60240226 291.83839417 69.51254272 C291.84574997 71.00543343 291.85434054 72.49831848 291.86405945 73.99119568 C291.88612988 78.01633473 291.88921331 82.04126818 291.88731194 86.06645942 C291.88719152 89.44308243 291.89578495 92.81966302 291.90408945 96.1962741 C291.92327301 104.17347106 291.92622646 112.15056341 291.91944885 120.1277771 C291.91281796 128.31726204 291.93564557 136.50629546 291.97276258 144.6956889 C292.00360617 151.76109656 292.01480366 158.8263601 292.01092577 165.8918336 C292.00887265 170.09646631 292.01411167 174.30074773 292.03881836 178.50531578 C292.06132604 182.46599494 292.05901217 186.42594838 292.03889084 190.38663292 C292.03552225 191.82639142 292.04038669 193.26620111 292.05487442 194.70589066 C292.23523946 213.98534765 285.65142719 230.71517616 272.28565979 244.77157593 C258.38789855 257.41967472 243.4781131 261.54046117 225.06764221 261.50692749 C223.83732269 261.50879562 222.60700317 261.51066376 221.33940125 261.5125885 C218.67233847 261.51658504 216.00532345 261.51894118 213.33826256 261.5190506 C209.10269726 261.52019909 204.86721754 261.53309956 200.63168335 261.5486145 C199.55496464 261.55247378 199.55496464 261.55247378 198.45649403 261.55641103 C196.98891124 261.56167742 195.52132852 261.5669629 194.05374587 261.57226706 C184.20468632 261.60721584 174.35573393 261.63394098 164.50660706 261.63143921 C157.84848331 261.62983898 151.19065378 261.64615667 144.53262407 261.68214583 C141.02090841 261.70042089 137.50968267 261.710114 133.99793053 261.69766998 C109.32922926 261.61902947 91.63602868 264.74672928 70.88722229 278.72079468 C64.59694976 282.93502973 58.28525531 287.11566052 51.96144104 291.27938843 C50.5797448 292.18939354 50.5797448 292.18939354 49.1701355 293.11778259 C45.36420117 295.62402955 41.55776245 298.12950972 37.75123596 300.63485718 C35.86051497 301.8794235 33.97006159 303.12439647 32.07987976 304.36978149 C30.2207602 305.59361172 28.36032127 306.81544023 26.4985199 308.03518677 C22.04738747 310.95724215 17.6300335 313.91327958 13.26856995 316.96786499 C12.45729141 317.5294632 11.64601288 318.0910614 10.81015015 318.66967773 C9.29875375 319.7190733 7.796098 320.78122429 6.30450439 321.85858154 C2.97951195 324.15364233 0.77271258 325.3204463 -3.27220154 326.01132202 C-6.58152771 325.38095093 -6.58152771 325.38095093 -9.47923279 323.6590271 C-12.7195589 318.60643638 -12.26951986 313.81410929 -12.21824646 307.93173218 C-12.2338134 306.1182856 -12.2338134 306.1182856 -12.24969482 304.26820374 C-12.27939927 300.4096634 -12.27599405 296.55208513 -12.26902771 292.69345093 C-12.27790339 288.82437497 -12.29378184 284.95555738 -12.32049561 281.08656311 C-12.33547994 278.67939095 -12.33917363 276.2721179 -12.33071899 273.86491394 C-12.33445023 272.7800621 -12.33818146 271.69521027 -12.34202576 270.57748413 C-12.3402684 269.61993729 -12.33851105 268.66239044 -12.33670044 267.67582703 C-12.35954692 265.18419486 -12.35954692 265.18419486 -14.58152771 263.38095093 C-16.63014291 262.78893337 -18.69632154 262.25714767 -20.76902771 261.75595093 C-40.6924535 256.18881148 -55.1152882 243.96652577 -65.48387146 226.10360718 C-74.73302191 208.71989735 -75.19508584 192.59555566 -75.14793396 173.22079468 C-75.15318081 170.58208499 -75.15946113 167.94337717 -75.16671753 165.30467224 C-75.17850563 159.7900662 -75.172953 154.27567103 -75.15794373 148.76107788 C-75.14108046 142.44834805 -75.15679905 136.13631276 -75.18916661 129.82365888 C-75.21615128 124.3469985 -75.22306062 118.87055037 -75.21465153 113.39383036 C-75.20979913 110.148122 -75.21371078 106.90291062 -75.23243904 103.65723991 C-75.31910234 85.91495042 -75.17917397 67.14598775 -66.48330021 51.15458584 C-65.38781248 49.10829118 -65.38781248 49.10829118 -64.33152771 45.63095093 C-60.64224545 35.515177 -53.00975322 26.96339565 -45.58152771 19.38095093 C-44.91894958 18.68227905 -44.25637146 17.98360718 -43.57371521 17.26376343 C-32.16444174 6.11477757 -15.78785439 -0.11333759 0 0 Z " fill="#0096F1" transform="translate(366.58152770996094,407.6190490722656)"/>
<path d="M0 0 C7.75516294 6.65192772 13.48694321 14.52015809 18.3125 23.5 C19.59781991 25.9217543 19.59781991 25.9217543 21.1875 27.75 C24.94539481 28.58787121 24.94539481 28.58787121 28.1875 27.75 C28.5896875 26.67105469 28.5896875 26.67105469 29 25.5703125 C36.36550188 8.07724553 51.76237526 -5.67126496 68.9765625 -13.03125 C87.37301632 -20.01384561 105.45182499 -18.21115088 123.1875 -10.25 C139.18994247 -2.27197071 150.71085343 11.16666481 156.96341228 27.81611633 C159.2741051 34.73565626 159.60891016 41.07175948 159.55981445 48.328125 C159.56346512 49.545569 159.56711578 50.763013 159.57087708 52.01734924 C159.57754965 55.32484668 159.57093905 58.63177224 159.55754495 61.9392128 C159.54615485 65.40958906 159.55034323 68.87995219 159.55229187 72.3503418 C159.55317153 78.16704167 159.54215562 83.98362424 159.52368164 89.80029297 C159.50243925 96.5272067 159.49902291 103.25394976 159.5052436 109.98089027 C159.51093071 116.46290975 159.50530447 122.94486909 159.49407005 129.42687988 C159.4894235 132.18283194 159.48855034 134.93874724 159.4906559 137.69470215 C159.4928833 141.5322103 159.47845591 145.36955484 159.4621582 149.20703125 C159.46587433 150.92594322 159.46587433 150.92594322 159.46966553 152.67958069 C159.46258072 153.71964767 159.45549591 154.75971466 159.44819641 155.83129883 C159.44614354 156.73826004 159.44409067 157.64522125 159.44197559 158.57966614 C159.1875 160.75 159.1875 160.75 157.1875 162.75 C153.9296875 162.9453125 153.9296875 162.9453125 150.0625 162.875 C148.78117187 162.85695313 147.49984375 162.83890625 146.1796875 162.8203125 C145.19226563 162.79710937 144.20484375 162.77390625 143.1875 162.75 C143.19386475 161.79335449 143.20022949 160.83670898 143.20678711 159.85107422 C143.2214441 156.23099832 143.18943171 152.61246471 143.14477539 148.99267578 C143.1318016 147.43934441 143.13074626 145.88585814 143.14282227 144.33251953 C143.23383288 130.92362232 140.62465917 120.90384734 131.75 110.375 C118.15213635 98.02782048 101.26386933 95.81970914 83.69482422 96.5546875 C78.67249455 96.94591084 74.57362552 98.34613694 70.1875 100.75 C69.30964844 101.22050781 68.43179688 101.69101562 67.52734375 102.17578125 C57.57363453 107.84895572 49.85691069 114.78749788 46.11865234 125.93823242 C45.15278706 129.89210099 44.84155816 133.6085483 44.7734375 137.65234375 C44.75407135 138.3749086 44.7347052 139.09747345 44.7147522 139.8419342 C44.65552395 142.12367375 44.60880145 144.40546533 44.5625 146.6875 C44.52426777 148.2454633 44.48521308 149.80340666 44.4453125 151.36132812 C44.34987025 155.15738781 44.26563332 158.95354622 44.1875 162.75 C38.65161467 162.77464775 33.115761 162.79283496 27.57983398 162.80493164 C25.6950627 162.80997244 23.81029535 162.81680498 21.92553711 162.82543945 C19.22248364 162.83751617 16.51948169 162.84323068 13.81640625 162.84765625 C12.54453209 162.85539818 12.54453209 162.85539818 11.2469635 162.86329651 C9.22678932 162.86349195 7.20672066 162.81206211 5.1875 162.75 C3.34597731 160.90847731 4.01307997 157.91136084 3.9765625 155.44140625 C3.94820313 154.13623047 3.91984375 152.83105469 3.890625 151.48632812 C3.84974117 149.41317699 3.81285742 147.34023004 3.78613281 145.2668457 C3.58353192 130.79660111 1.38116445 120.99683468 -8.33203125 110.03515625 C-20.28809907 98.6239219 -35.89594102 96.13111874 -51.6640625 96.44140625 C-64.31570377 96.99356951 -75.53335932 102.88975913 -84.1875 112.0625 C-91.02980884 120.28170056 -93.81355669 128.21404588 -94.12890625 138.80078125 C-94.14968735 139.45958786 -94.17046844 140.11839447 -94.19187927 140.79716492 C-94.25685489 142.88551185 -94.31601575 144.97397612 -94.375 147.0625 C-94.41823479 148.4850378 -94.4618506 149.90756406 -94.50585938 151.33007812 C-94.61248216 154.80326297 -94.71389348 158.27657726 -94.8125 161.75 C-101.6882705 159.13349436 -105.03721649 154.81057187 -108.125 148.1875 C-110.94802687 141.69572935 -110.97201146 135.09985109 -111.00537109 128.14306641 C-111.01354858 127.19253387 -111.02172607 126.24200134 -111.03015137 125.26266479 C-111.0549019 122.12563689 -111.07150009 118.98865413 -111.0859375 115.8515625 C-111.09126118 114.77377911 -111.09658485 113.69599571 -111.10206985 112.58555222 C-111.12876398 106.87426212 -111.14814584 101.16299353 -111.16259766 95.45166016 C-111.17589806 90.7515907 -111.20368466 86.05195938 -111.24462891 81.35205078 C-111.29427051 75.65217294 -111.31875758 69.95269017 -111.32582474 64.25260544 C-111.33248711 62.09432024 -111.34757598 59.9360421 -111.37171555 57.77788162 C-111.60438961 35.70679543 -107.34709935 17.88007932 -91.609375 1.35546875 C-64.73816568 -23.67678909 -27.62569452 -22.63581856 0 0 Z " fill="#02081A" transform="translate(456.8125,483.25)"/>
<path d="M0 0 C1.54309332 -0.00435234 3.08618448 -0.00953722 4.62927246 -0.01548767 C8.8003793 -0.02882529 12.97139525 -0.02946275 17.14251924 -0.02692437 C20.62707548 -0.0258522 24.11161351 -0.03074374 27.59616584 -0.03552979 C35.81200864 -0.04660445 44.0278057 -0.04707233 52.24365234 -0.04101562 C60.72234782 -0.03496157 69.20087795 -0.04732769 77.67954522 -0.06858569 C84.9637803 -0.086178 92.24796261 -0.09220725 99.53221816 -0.08894795 C103.88114692 -0.08713291 108.22995742 -0.08979423 112.57886696 -0.10366249 C116.66242994 -0.11619954 120.74573349 -0.1143362 124.8292923 -0.1012516 C126.32933068 -0.09887813 127.82938713 -0.10164796 129.32940483 -0.10987473 C131.37292538 -0.12027672 133.41651934 -0.11047563 135.46003723 -0.0995636 C136.60465329 -0.09973134 137.74926935 -0.09989908 138.92857075 -0.10007191 C141.72729492 0.2746582 141.72729492 0.2746582 143.6301527 1.59249592 C144.72729492 3.2746582 144.72729492 3.2746582 144.54882812 6.56347656 C143.22709598 12.53424933 141.05768981 18.11970617 138.91479492 23.8371582 C138.47586914 25.04307617 138.03694336 26.24899414 137.5847168 27.49145508 C133.48250351 38.53024893 130.05815988 43.63279788 119.72729492 49.2746582 C117.99339968 50.26410397 116.26032913 51.25499629 114.52807617 52.24731445 C112.69940537 53.27860455 110.86995033 54.30850504 109.03979492 55.3371582 C107.03456341 56.46732542 105.02935585 57.59753511 103.02416992 58.7277832 C101.99743164 59.30592773 100.97069336 59.88407227 99.9128418 60.47973633 C94.53524062 63.50978874 89.16278224 66.54893447 83.78979492 69.5871582 C81.84320354 70.68745967 79.89659115 71.78772397 77.94995117 72.88793945 C77.13276611 73.34982666 76.31558105 73.81171387 75.47363281 74.28759766 C74.89734131 74.61332764 74.3210498 74.93905762 73.72729492 75.2746582 C75.14268555 75.43901367 75.14268555 75.43901367 76.58666992 75.60668945 C89.85747804 77.24555431 100.66760237 79.2132914 111.72729492 87.2746582 C112.33573242 87.69875977 112.94416992 88.12286133 113.57104492 88.55981445 C119.44181028 92.97786492 122.8315488 99.29562825 124.72729492 106.2746582 C126.13273331 122.37183049 122.79174939 135.95782681 112.72729492 148.83325195 C98.03844858 166.06641632 76.80579662 174.57210579 54.72729492 177.2746582 C49.60174602 177.54478699 44.48291543 177.54917222 39.35180664 177.53344727 C37.84590995 177.53616378 36.34001459 177.53972839 34.8341217 177.54406738 C30.78314055 177.55310737 26.73226238 177.54968427 22.68127966 177.54330921 C18.43148889 177.53821476 14.18170643 177.54294931 9.93191528 177.54608154 C2.809005 177.54970723 -4.31386363 177.54495476 -11.43676758 177.53540039 C-19.67582386 177.52447665 -27.91478145 177.5280753 -36.15383542 177.5390532 C-43.23940888 177.5481162 -50.32495259 177.54941747 -57.41052997 177.54417586 C-61.63805378 177.54105608 -65.86553108 177.54064791 -70.09305191 177.54724884 C-74.0576118 177.55300875 -78.02204345 177.54905052 -81.98658943 177.53746033 C-83.44350916 177.53480824 -84.90043962 177.53558813 -86.35735512 177.53998566 C-88.33972421 177.54541966 -90.3221168 177.5374093 -92.30447388 177.52862549 C-93.41531908 177.52787144 -94.52616428 177.52711739 -95.67067146 177.52634048 C-98.27270508 177.2746582 -98.27270508 177.2746582 -100.27270508 175.2746582 C-101.01025728 171.66592064 -100.04466032 169.58850535 -98.14770508 166.6027832 C-97.20359994 165.23348826 -96.24445339 163.87447611 -95.27270508 162.5246582 C-94.77085693 161.81599609 -94.26900879 161.10733398 -93.75195312 160.37719727 C-82.09248817 144.11682968 -82.09248817 144.11682968 -73.27270508 141.2746582 C-66.3143361 140.13632968 -59.26237712 140.12899435 -52.23022461 140.1328125 C-50.64760834 140.12760086 -50.64760834 140.12760086 -49.03302002 140.12228394 C-46.75889732 140.11497527 -44.48476772 140.10960408 -42.21063614 140.10599327 C-38.60235198 140.09877053 -34.99419935 140.08306233 -31.38595581 140.06465149 C-21.13256598 140.01244501 -10.87925243 139.96421527 -0.62573242 139.94873047 C5.66238011 139.93861539 11.95015409 139.90920918 18.23813248 139.86741066 C20.62294066 139.85515468 23.00779672 139.84996944 25.39263535 139.85220909 C45.49375114 139.98137097 45.49375114 139.98137097 63.72729492 132.2746582 C67.11851888 128.57361872 69.0514968 124.68796125 69.28979492 119.6496582 C68.99242509 115.21961016 67.80034692 112.5781891 64.72729492 109.2746582 C55.31529362 102.56445492 42.86194401 102.97839033 31.81713867 102.9309082 C29.84778118 102.90857171 27.87842373 102.88622453 25.90907383 102.86322784 C21.79734299 102.81819375 17.68546556 102.7898153 13.5736084 102.75897217 C10.15661312 102.73275507 6.73975423 102.70281445 3.32289124 102.66271973 C0.77108836 102.63358252 -1.78083261 102.61322748 -4.33277893 102.60241699 C-6.05113197 102.58229553 -6.05113197 102.58229553 -7.80419922 102.56176758 C-8.8147084 102.55447632 -9.82521759 102.54718506 -10.86634827 102.53967285 C-13.27270508 102.2746582 -13.27270508 102.2746582 -15.27270508 100.2746582 C-15.06491224 94.24866581 -13.84991467 89.19702435 -10.27270508 84.2746582 C-4.16823569 79.38029712 3.02866154 75.6751618 9.78979492 71.7746582 C11.91743825 70.54035071 14.04504124 69.30597368 16.17260742 68.0715332 C17.25574219 67.4444043 18.33887695 66.81727539 19.45483398 66.17114258 C24.69760914 63.13280496 29.93097419 60.078385 35.16479492 57.0246582 C36.15568115 56.4476416 37.14656738 55.870625 38.16748047 55.27612305 C42.77046549 52.59394834 47.36608783 49.90100794 51.94213867 47.1730957 C53.13141968 46.46588379 53.13141968 46.46588379 54.34472656 45.74438477 C55.80842105 44.87253127 57.26998946 43.99709458 58.72900391 43.11743164 C63.50546813 40.2746582 63.50546813 40.2746582 65.72729492 40.2746582 C65.72729492 39.6146582 65.72729492 38.9546582 65.72729492 38.2746582 C65.09946137 38.27558 64.47162783 38.27650179 63.82476902 38.27745152 C48.56939261 38.29950695 33.31402108 38.31606985 18.05863285 38.32647038 C10.68133536 38.33163328 3.30404849 38.33867587 -4.07324219 38.35009766 C-10.50102688 38.36004466 -16.92880388 38.36651167 -23.35659605 38.3687467 C-26.76209786 38.37005378 -30.16757766 38.37313945 -33.57307243 38.38038826 C-37.36871549 38.38759426 -41.1643122 38.38864933 -44.95996094 38.38818359 C-46.66575317 38.39357651 -46.66575317 38.39357651 -48.40600586 38.39907837 C-49.43390732 38.3977037 -50.46180878 38.39632904 -51.52085876 38.39491272 C-52.41960692 38.39583451 -53.31835508 38.39675631 -54.24433804 38.39770603 C-56.27270508 38.2746582 -56.27270508 38.2746582 -57.27270508 37.2746582 C-57.28164041 30.26936072 -53.99224218 27.07047639 -49.21020508 22.2746582 C-48.56631836 21.60176758 -47.92243164 20.92887695 -47.2590332 20.2355957 C-35.18897261 7.76841447 -35.18897261 7.76841447 -28.27270508 4.4621582 C-27.50958008 4.08446289 -26.74645508 3.70676758 -25.96020508 3.31762695 C-17.35348785 -0.02247988 -9.09939561 -0.01698297 0 0 Z " fill="#0293F9" transform="translate(706.272705078125,677.725341796875)"/>
<path d="M0 0 C6.97016794 5.55619634 12.70533618 12.03273778 17.24316406 19.72021484 C17.77554688 20.62126953 18.30792969 21.52232422 18.85644531 22.45068359 C26.47556629 36.46003506 28.42072839 51.8571036 28.43066406 67.59521484 C28.44291016 68.63935547 28.45515625 69.68349609 28.46777344 70.75927734 C28.46970703 71.75443359 28.47164062 72.74958984 28.47363281 73.77490234 C28.4777417 74.67708496 28.48185059 75.57926758 28.48608398 76.50878906 C28.24316406 78.72021484 28.24316406 78.72021484 26.24316406 80.72021484 C24.23230553 80.9663105 24.23230553 80.9663105 21.71273804 80.96072388 C20.7591893 80.96347321 19.80564056 80.96622253 18.82319641 80.96905518 C17.77375351 80.96186462 16.72431061 80.95467407 15.64306641 80.94726562 C14.54062088 80.94755768 13.43817535 80.94784973 12.30232239 80.94815063 C8.64450309 80.94675306 4.98688544 80.93117164 1.32910156 80.91552734 C-1.20152678 80.91179874 -3.73215656 80.90895105 -6.26278687 80.9069519 C-12.25160099 80.90008595 -18.24032806 80.88430997 -24.22910726 80.86425292 C-31.04642601 80.84191554 -37.86374819 80.83090594 -44.68109441 80.82086205 C-58.70638194 80.79994429 -72.73160496 80.76475483 -86.75683594 80.72021484 C-86.30706769 82.44669566 -85.85148505 84.17166223 -85.39355469 85.89599609 C-85.01396606 87.33712769 -85.01396606 87.33712769 -84.62670898 88.80737305 C-81.71337043 98.562928 -76.64021414 106.1569306 -67.85449219 111.47802734 C-55.2910611 118.03699389 -42.78467815 119.58875774 -28.74902344 116.67333984 C-16.96337319 112.91916405 -6.15709487 106.78456699 1.24316406 96.72021484 C5.14390132 98.33623456 7.95933807 100.99319658 10.99316406 103.84521484 C11.51740967 104.33586426 12.04165527 104.82651367 12.58178711 105.33203125 C13.6387803 106.32446907 14.69374136 107.31907598 15.74658203 108.31591797 C17.09327956 109.57957281 18.46558772 110.81580055 19.84082031 112.04833984 C20.57171875 112.72380859 21.30261719 113.39927734 22.05566406 114.09521484 C22.70148438 114.68044922 23.34730469 115.26568359 24.01269531 115.86865234 C25.24316406 117.72021484 25.24316406 117.72021484 25.12207031 120.20849609 C21.05890329 131.8201245 6.39305754 139.13991302 -3.92089844 144.11474609 C-27.71106013 154.53621063 -54.99898943 154.71584596 -79.19433594 145.47021484 C-98.57314124 136.57812705 -112.08240912 121.22502802 -119.45996094 101.36474609 C-127.40806975 77.61453875 -126.52737334 50.02022026 -115.63964844 27.34521484 C-113.15007726 22.42224743 -110.23764408 18.0003735 -106.75683594 13.72021484 C-106.0671875 12.86814453 -105.37753906 12.01607422 -104.66699219 11.13818359 C-79.72786292 -18.09626144 -30.90197081 -22.51085756 0 0 Z " fill="#FAFAFA" transform="translate(794.7568359375,489.27978515625)"/>
<path d="M0 0 C20.63798301 -0.77864341 40.4200802 3.09472982 56.15625 17.41113281 C70.68959973 31.36112367 78.80877034 49.49383612 79.83447266 69.59057617 C79.88695727 73.15781324 79.88068757 76.7187412 79.84375 80.28613281 C79.8427832 82.12401367 79.8427832 82.12401367 79.84179688 83.99902344 C79.79702759 92.95785522 79.79702759 92.95785522 78.65625 94.09863281 C77.17608606 94.19431857 75.69136727 94.22051549 74.20811462 94.21888733 C72.76723228 94.22094933 72.76723228 94.22094933 71.29724121 94.22305298 C70.23485229 94.2194577 69.17246338 94.21586243 68.07788086 94.2121582 C66.40980125 94.21237724 66.40980125 94.21237724 64.70802307 94.21260071 C61.01236049 94.21190102 57.31674759 94.20410601 53.62109375 94.19628906 C51.06661507 94.19442508 48.51213603 94.19300109 45.95765686 94.19200134 C39.9086329 94.18856625 33.85963045 94.18067546 27.81061512 94.17065185 C20.92559846 94.15948964 14.04058096 94.15397999 7.15555751 94.14895642 C-7.0108883 94.13849281 -21.17731817 94.12089404 -35.34375 94.09863281 C-34.74080801 96.15521726 -34.12985474 98.20945386 -33.515625 100.26269531 C-33.00660645 101.97900146 -33.00660645 101.97900146 -32.48730469 103.72998047 C-28.86350118 114.40488242 -22.27626755 121.64712345 -12.40625 126.91113281 C1.12724659 133.15420256 15.77933296 132.40145711 29.59375 127.41113281 C37.67690186 124.02223374 44.36932711 118.98843287 49.98828125 112.28613281 C51.65625 111.09863281 51.65625 111.09863281 54.1328125 111.23535156 C58.55178879 112.74710661 61.32692824 115.91523911 64.65625 119.09863281 C65.16800781 119.56865723 65.67976562 120.03868164 66.20703125 120.52294922 C67.89406154 122.07317992 69.55794671 123.645372 71.21875 125.22363281 C71.76797119 125.72612549 72.31719238 126.22861816 72.88305664 126.74633789 C74.41015625 128.23144531 74.41015625 128.23144531 76.65625 131.09863281 C76.69222059 135.94027372 73.99872312 138.59734843 70.85546875 141.98925781 C51.99472036 160.07949606 26.82463477 165.66676552 1.5078125 165.30957031 C-18.27689283 164.68037474 -36.1381122 156.72628637 -50.59375 143.41113281 C-68.27413268 124.5371378 -73.35126913 99.97904175 -72.62109375 74.84863281 C-71.62622666 54.37335989 -63.37229235 33.4440596 -48.34375 19.09863281 C-33.68272781 6.65381165 -19.00823222 0.79992977 0 0 Z " fill="#FAFAFA" transform="translate(905.34375,475.9013671875)"/>
<path d="M0 0 C1.087193 -0.00339833 1.087193 -0.00339833 2.1963495 -0.00686532 C4.62533115 -0.01319625 7.05425687 -0.01237656 9.48324585 -0.0115509 C11.22441175 -0.01454285 12.96557698 -0.01794546 14.70674133 -0.02172852 C19.43583032 -0.03056641 24.16490122 -0.03290647 28.89399767 -0.0335443 C32.83822775 -0.0344933 36.78245361 -0.03817126 40.72668207 -0.0417164 C50.02688649 -0.04985921 59.32708124 -0.05230069 68.62728882 -0.05158997 C78.23400155 -0.05098836 87.84065827 -0.0615571 97.44735682 -0.07733363 C105.68774291 -0.09038609 113.92811063 -0.09577487 122.16850698 -0.09513456 C127.09367744 -0.09487901 132.01879808 -0.09776179 136.94395828 -0.10831261 C141.57158315 -0.11795573 146.19911015 -0.11809898 150.82673836 -0.11079597 C152.52876363 -0.10974558 154.23079487 -0.11213975 155.93280983 -0.11815643 C158.24853652 -0.12581514 160.56391996 -0.12127279 162.87963867 -0.11352539 C164.17785868 -0.11407016 165.47607868 -0.11461493 166.81363869 -0.1151762 C169.81283569 0.13371277 169.81283569 0.13371277 171.81283569 2.13371277 C171.70085449 9.3091235 169.00127707 15.60640983 166.36727905 22.20573425 C165.63056167 24.05807302 164.91593836 25.91914904 164.20150757 27.78019714 C160.31618675 37.63396441 155.99662756 45.79471948 147.93783569 52.75871277 C146.79761437 53.77723916 145.65833675 54.79682272 144.51986694 55.81730652 C143.62195435 56.61563904 143.62195435 56.61563904 142.7059021 57.43009949 C139.29175012 60.50257209 135.96534332 63.6686425 132.62533569 66.82121277 C127.54735147 71.59506872 122.43451455 76.32040211 117.23471069 80.96183777 C114.40730917 83.49737849 111.60874442 86.06359351 108.81283569 88.63371277 C104.35959556 92.72549777 99.87623579 96.78194345 95.37533569 100.82121277 C92.50683125 103.40986312 89.65810588 106.01960385 86.81283569 108.63371277 C80.71296426 114.23674453 74.55722407 119.7758419 68.39096069 125.30558777 C63.7983533 129.43015874 59.2311271 133.58002406 54.68783569 137.75871277 C50.77032911 141.36025158 46.81641916 144.91159488 42.79721069 148.39933777 C40.49134534 150.4147004 38.21344438 152.45925153 35.93783569 154.50871277 C35.09607788 155.26539246 34.25432007 156.02207214 33.38705444 156.80168152 C31.67141223 158.35591278 29.96560868 159.92107428 28.26986694 161.49699402 C17.05945967 171.83837747 7.80880516 177.65951176 -7.68716431 177.42668152 C-8.76345093 177.42243668 -9.83973755 177.41819183 -10.94863892 177.41381836 C-14.36174301 177.39712302 -17.77424085 177.3594872 -21.18716431 177.32121277 C-23.51137449 177.30615414 -25.83559399 177.2924678 -28.15982056 177.28019714 C-33.83580612 177.24724951 -39.51144188 177.19714179 -45.18716431 177.13371277 C-44.55618575 173.58564139 -44.14135437 171.58407496 -41.52700806 169.04777527 C-40.98495728 168.51345886 -40.44290649 167.97914246 -39.88442993 167.42863464 C-39.30370728 166.87756042 -38.72298462 166.32648621 -38.12466431 165.75871277 C-37.23231079 164.88956238 -37.23231079 164.88956238 -36.32192993 164.00285339 C-32.7668771 160.56385234 -29.11686697 157.26905401 -25.34341431 154.07121277 C-21.73631076 150.83004726 -18.37537535 147.34108898 -14.96670532 143.89372253 C-11.52679909 140.42984831 -8.00162581 137.16246343 -4.27700806 134.00480652 C-0.9589862 131.03409162 2.14251392 127.84714694 5.25057983 124.65885925 C7.96538722 121.89609196 10.75234822 119.28713069 13.68783569 116.75871277 C17.93903144 113.08134763 21.87855879 109.14483102 25.81283569 105.13371277 C30.37273353 100.48475443 35.00325392 96.03635059 39.93783569 91.78605652 C42.69222373 89.35875206 45.25137228 86.76131215 47.81283569 84.13371277 C51.66133806 80.23221898 55.57731249 76.52524913 59.75424194 72.97355652 C62.37782292 70.62876213 64.84273674 68.13740709 67.31283569 65.63371277 C70.36621852 62.53880144 73.43607231 59.5143702 76.75033569 56.69621277 C80.41567852 53.5653991 83.83759289 50.22188041 87.25033569 46.82121277 C87.78328247 46.29277771 88.31622925 45.76434265 88.86532593 45.21989441 C91.68878218 42.44124788 91.68878218 42.44124788 93.81283569 39.13371277 C92.88654657 39.13509546 92.88654657 39.13509546 91.94154453 39.13650608 C76.9365242 39.15856165 61.93150883 39.17512449 46.92647648 39.18552494 C39.67024721 39.19068781 32.41402874 39.19773035 25.1578064 39.20915222 C18.83549713 39.21909932 12.51319568 39.22556626 6.19087881 39.22780126 C2.8412682 39.22910833 -0.50832004 39.23219389 -3.85792351 39.23944283 C-7.59130076 39.24664897 -11.32463089 39.24770389 -15.05801392 39.24723816 C-16.17650726 39.25083344 -17.29500061 39.25442871 -18.4473877 39.25813293 C-19.96399742 39.25607094 -19.96399742 39.25607094 -21.51124573 39.25396729 C-22.3952452 39.25488908 -23.27924467 39.25581087 -24.19003201 39.2567606 C-26.18716431 39.13371277 -26.18716431 39.13371277 -27.18716431 38.13371277 C-28.0925764 30.99101735 -25.20445244 25.03493732 -22.56216431 18.50871277 C-22.13548462 17.38980652 -21.70880493 16.27090027 -21.26919556 15.11808777 C-18.80572662 8.9557386 -16.92561 4.65677996 -11.18716431 1.13371277 C-7.50736159 -0.14770652 -3.86678884 0.00498866 0 0 Z " fill="#00E5E6" transform="translate(885.1871643066406,677.8662872314453)"/>
<path d="M0 0 C1.33804688 -0.04253906 1.33804688 -0.04253906 2.703125 -0.0859375 C9.90459049 1.00351497 15.57787342 5.49324083 21.1875 9.875 C26.75646144 14.13789647 32.3793561 18.2906828 38.125 22.3125 C76.8535893 49.4785893 76.8535893 49.4785893 81.75 54.375 C81.92515311 57.23745329 82.03486804 60.07712826 82.1015625 62.94287109 C82.12580292 63.84218353 82.15004333 64.74149597 82.17501831 65.6680603 C82.38693479 73.99594407 82.51132849 82.32550215 82.60931396 90.65543175 C82.67626634 96.25185591 82.7717213 101.84449521 82.93652344 107.43896484 C83.09516819 112.84812807 83.17917246 118.2538404 83.21209717 123.66518021 C83.23717832 125.72198398 83.28826713 127.77865008 83.36651611 129.83411789 C83.93572071 145.50030269 83.93572071 145.50030269 80.27791786 150.31110764 C76.74969847 153.68842946 72.80107729 156.15254067 68.50020218 158.42947292 C66.25700941 159.64133263 64.23802886 161.09100273 62.19921875 162.6171875 C60.94619286 163.49604817 59.69230087 164.37367544 58.4375 165.25 C52.54433907 169.38527713 46.69782799 173.57887179 40.875 177.8125 C34.45874565 182.4683685 27.97868492 187.02129974 21.4375 191.5 C20.24568115 192.31682251 20.24568115 192.31682251 19.02978516 193.15014648 C5.03517778 202.68425521 5.03517778 202.68425521 -4.25 201.375 C-10.38675497 198.93561255 -13.87210651 194.90246207 -17.25 189.375 C-18.40179538 185.91961385 -18.37879674 183.24728809 -18.38371277 179.60075378 C-18.38597833 178.90822 -18.38824388 178.21568622 -18.39057809 177.50216657 C-18.39692002 175.17615084 -18.3960886 172.85019335 -18.39526367 170.52416992 C-18.39825508 168.85860621 -18.40165756 167.19304318 -18.40544128 165.52748108 C-18.41428822 160.99847098 -18.41661971 156.46947977 -18.41725707 151.94046187 C-18.41820592 148.1606906 -18.42188402 144.38092373 -18.42542917 140.60115415 C-18.43357666 131.68291235 -18.43601316 122.76468064 -18.43530273 113.84643555 C-18.43470212 104.64596879 -18.44525 95.4455607 -18.4610464 86.24510878 C-18.47412243 78.34777716 -18.47948659 70.45046471 -18.47884732 62.55312234 C-18.47859232 57.83572441 -18.4814448 53.11837859 -18.49202538 48.40099144 C-18.50170718 43.96296531 -18.50178495 39.52504106 -18.49450874 35.08701134 C-18.49346295 33.45923209 -18.4958255 31.8314465 -18.5018692 30.20367813 C-18.50959303 27.9790648 -18.50494186 25.75480297 -18.49723816 23.53019714 C-18.49778293 22.2859859 -18.49832769 21.04177465 -18.49888897 19.75986004 C-18.08975131 14.19563704 -16.59970559 10.25633283 -12.875 6.125 C-12.28976563 5.45984375 -11.70453125 4.7946875 -11.1015625 4.109375 C-7.61459063 0.84309755 -4.73815276 0.0676879 0 0 Z " fill="#0160F6" transform="translate(192.25,444.625)"/>
<path d="M0 0 C0 17.82 0 35.64 0 54 C14.19 54 28.38 54 43 54 C43 59.20549387 42.8827688 61.03016378 40.953125 65.4765625 C40.52 66.476875 40.086875 67.4771875 39.640625 68.5078125 C39.18171875 69.53648437 38.7228125 70.56515625 38.25 71.625 C37.58484375 73.17960937 37.58484375 73.17960937 36.90625 74.765625 C32.90604879 83.8719654 32.90604879 83.8719654 29 87 C25.88378906 87.45410156 25.88378906 87.45410156 22.265625 87.390625 C20.97011719 87.37773438 19.67460938 87.36484375 18.33984375 87.3515625 C16.97655176 87.31814366 15.61327051 87.28428391 14.25 87.25 C12.87111936 87.22992707 11.49221088 87.21167767 10.11328125 87.1953125 C6.74148256 87.14815448 3.37109313 87.08234538 0 87 C0.03813714 97.27548393 0.09761533 107.55060577 0.18390274 117.82580471 C0.2233139 122.59766905 0.25553349 127.36935062 0.27099609 132.14135742 C0.28620471 136.75166211 0.32072442 141.36146409 0.36830902 145.97154427 C0.38307959 147.7252368 0.39103852 149.47900113 0.39188385 151.23275566 C0.00510527 165.54549507 0.00510527 165.54549507 6.64447021 177.65594482 C12.70196134 182.67347289 21.06236045 181.78367871 28.5 181.8125 C29.90889229 181.83567897 31.31775029 181.86105131 32.7265625 181.88867188 C36.15132565 181.94731508 39.57481694 181.9837654 43 182 C44.28696028 185.86088085 43.44199597 186.94458078 41.83203125 190.62109375 C41.35056641 191.72130859 40.86910156 192.82152344 40.37304688 193.95507812 C39.85806641 195.10427734 39.34308594 196.25347656 38.8125 197.4375 C38.31685547 198.58283203 37.82121094 199.72816406 37.31054688 200.90820312 C32.2260311 212.38698445 32.2260311 212.38698445 27 215 C22.54784299 215.30228637 18.08618601 215.27839307 13.625 215.3125 C12.39910156 215.34150391 11.17320313 215.37050781 9.91015625 215.40039062 C-3.09246204 215.49001631 -14.43187369 212.23777159 -23.96875 203.1171875 C-36.27970715 189.81509396 -36.43327621 174.19262723 -36.29296875 157.01953125 C-36.28736454 154.99501359 -36.28309835 152.97049183 -36.28010559 150.94596863 C-36.26872177 145.65071119 -36.23931101 140.35570567 -36.20599365 135.06054688 C-36.17515256 129.64391486 -36.1615704 124.22724163 -36.14648438 118.81054688 C-36.11443448 108.20692135 -36.06331737 97.60348173 -36 87 C-36.59538574 87.01047363 -37.19077148 87.02094727 -37.80419922 87.03173828 C-40.49442343 87.07323949 -43.18458037 87.09930704 -45.875 87.125 C-46.81214844 87.14175781 -47.74929688 87.15851563 -48.71484375 87.17578125 C-49.61074219 87.18222656 -50.50664063 87.18867187 -51.4296875 87.1953125 C-52.25710449 87.20578613 -53.08452148 87.21625977 -53.93701172 87.22705078 C-56 87 -56 87 -58 85 C-59.61760811 80.80504877 -60.86612004 76.48371442 -62.1875 72.1875 C-62.56841797 70.99833984 -62.94933594 69.80917969 -63.34179688 68.58398438 C-63.69693359 67.43607422 -64.05207031 66.28816406 -64.41796875 65.10546875 C-64.74563232 64.05512451 -65.0732959 63.00478027 -65.41088867 61.92260742 C-66 59 -66 59 -65 54 C-55.43 54 -45.86 54 -36 54 C-36.05800781 51.74800781 -36.11601563 49.49601562 -36.17578125 47.17578125 C-36.21482028 44.98481769 -36.24515386 42.79389346 -36.2746582 40.6027832 C-36.29974109 39.08470199 -36.3338166 37.56674082 -36.37719727 36.04907227 C-36.43813293 33.86184035 -36.46626895 31.67620961 -36.48828125 29.48828125 C-36.51446533 28.17384033 -36.54064941 26.85939941 -36.56762695 25.50512695 C-35.6984369 20.13783164 -32.65955 18.2553255 -28.4921875 15.10302734 C-27.19667969 14.22831787 -27.19667969 14.22831787 -25.875 13.3359375 C-24.92109375 12.68882812 -23.9671875 12.04171875 -22.984375 11.375 C-21.99953125 10.715 -21.0146875 10.055 -20 9.375 C-19.01515625 8.70726562 -18.0303125 8.03953125 -17.015625 7.3515625 C-14.35296659 5.55246898 -11.69035045 3.75742324 -9 2 C-8.15179687 1.41428223 -7.30359375 0.82856445 -6.4296875 0.22509766 C-4 -1 -4 -1 0 0 Z " fill="#FAFAFA" transform="translate(1046,425)"/>
<path d="M0 0 C4.69009909 -0.00564178 9.37993016 -0.03010861 14.06994247 -0.05797195 C17.73466858 -0.07649468 21.39932557 -0.08179678 25.06409454 -0.08333588 C26.79768712 -0.08635078 28.53127882 -0.09433982 30.26482391 -0.10752106 C32.65024906 -0.12447518 35.03495019 -0.12273645 37.42041016 -0.11621094 C38.47649223 -0.13003311 38.47649223 -0.13003311 39.5539093 -0.14413452 C42.38646574 -0.11972031 44.31290903 -0.06414819 46.69268799 1.55157471 C48.54343125 4.476377 48.16575371 6.88847037 47.76123047 10.24023438 C45.33028757 14.29180587 43.17576339 15.7860068 38.76123047 17.24023438 C36.32624817 17.49420166 36.32624817 17.49420166 33.7331543 17.49902344 C32.74269104 17.50523209 31.75222778 17.51144073 30.73175049 17.51783752 C29.11632355 17.51190834 29.11632355 17.51190834 27.46826172 17.50585938 C26.32371521 17.50863388 25.1791687 17.51140839 23.99993896 17.51426697 C20.19108701 17.5184791 16.38255091 17.50564754 12.57373047 17.49023438 C11.25436493 17.4874649 9.93499939 17.48469543 8.57565308 17.48184204 C-33.38940904 17.38960081 -75.33814806 16.04186615 -117.23876953 13.74023438 C-118.35218719 13.68056488 -119.46560486 13.62089539 -120.61276245 13.55941772 C-123.73868221 13.38893323 -126.86374047 13.20751462 -129.98876953 13.02148438 C-130.88672745 12.97252518 -131.78468536 12.92356598 -132.70985413 12.87312317 C-138.68342801 12.49699471 -144.40011079 11.55049992 -150.23876953 10.24023438 C-150.23876953 8.92023437 -150.23876953 7.60023438 -150.23876953 6.24023438 C-132.71720113 4.45735048 -115.20457322 2.999134 -97.61376953 2.11523438 C-96.88206543 2.07698547 -96.15036133 2.03873657 -95.39648438 1.99932861 C-63.63228376 0.36356845 -31.80011786 0.03259413 0 0 Z " fill="#00D4F3" transform="translate(579.23876953125,766.759765625)"/>
<path d="M0 0 C6.87315156 3.99940611 10.51352817 10.60208735 13 18 C14.41981842 27.29926872 12.77510885 34.48253322 7.52734375 42.15234375 C2.56877987 48.44725818 -4.11631135 52.42640945 -12 54 C-19.80040574 54.92572909 -26.55548853 53.0195536 -33.046875 48.609375 C-39.64932 43.24841539 -44.26956254 36.11001067 -45.2890625 27.58203125 C-45.58989655 18.76212395 -43.60010467 12.50422471 -37.875 5.75 C-26.88988516 -5.58833397 -14.24930307 -7.27332003 0 0 Z " fill="#00C2EB" transform="translate(566,514)"/>
<path d="M0 0 C6.11174394 4.05534889 10.40893887 9.80159802 12.66015625 16.828125 C14.23701936 25.64816152 12.5256798 33.24452072 8.265625 41.00390625 C3.49704972 46.96462535 -2.20828231 51.95906638 -10.01245117 53.11743164 C-12.15876087 53.25337544 -14.27156299 53.28492383 -16.421875 53.25390625 C-17.1739624 53.24415771 -17.9260498 53.23440918 -18.70092773 53.22436523 C-25.75646928 52.99795549 -29.98572208 51.70014729 -35.125 46.7578125 C-41.57608923 39.87742417 -44.50837408 34.3619422 -44.421875 24.94140625 C-44.44185547 24.17699219 -44.46183594 23.41257812 -44.48242188 22.625 C-44.47594905 15.00001024 -41.72839837 9.00397034 -36.359375 3.56640625 C-26.09219301 -6.03898685 -11.97131095 -7.14036854 0 0 Z " fill="#0091F4" transform="translate(429.984375,514.18359375)"/>
<path d="M0 0 C10.70447421 5.37456911 17.12170374 12.35309095 22.15234375 23.09375 C23 26 23 26 23 34 C-3.07 34 -29.14 34 -56 34 C-53.73278088 21.53029484 -50.14664992 12.85818493 -40 5 C-27.80281346 -2.11373395 -13.72031601 -5.01962781 0 0 Z " fill="#080B1B" transform="translate(926,510)"/>
<path d="M0 0 C1.25399734 0.70770147 2.48732076 1.454437 3.6875 2.25 C4.76 2.889375 5.8325 3.52875 6.9375 4.1875 C15.00363185 10.23709889 21.71268709 18.16806041 23.6875 28.25 C23.6875 30.23 23.6875 32.21 23.6875 34.25 C-2.3825 34.25 -28.4525 34.25 -55.3125 34.25 C-54.02116386 22.62797476 -50.36926203 15.29335281 -41.890625 7.26171875 C-30.77370785 -1.41284539 -13.51886854 -5.93341046 0 0 Z " fill="#090B1B" transform="translate(763.3125,509.75)"/>
<path d="M0 0 C2.19145203 -0.01058985 4.38288768 -0.02550164 6.57427979 -0.04486084 C9.58951129 -0.06821898 12.60399048 -0.07109215 15.61929321 -0.06674194 C16.50695374 -0.07585602 17.39461426 -0.08497009 18.30917358 -0.09436035 C24.29772431 -0.0489869 24.29772431 -0.0489869 26.46168518 1.64012146 C27.74038696 3.29653931 27.74038696 3.29653931 28.17788696 6.17153931 C27.63739776 10.03217648 26.47527106 11.56165521 23.74038696 14.29653931 C20.86557526 16.0241811 18.73883559 16.55058539 15.40151978 16.57119751 C14.53935852 16.5805986 13.67719727 16.58999969 12.78890991 16.59968567 C11.84992859 16.59890518 10.91094727 16.59812469 9.94351196 16.59732056 C8.94700623 16.60278397 7.95050049 16.60824738 6.92379761 16.61387634 C3.61252781 16.62561269 0.30165905 16.61901444 -3.00961304 16.60903931 C-4.14986938 16.6082135 -5.29012573 16.6073877 -6.4649353 16.60653687 C-32.81460111 16.5630752 -59.06940412 15.17664342 -85.35787964 13.48330688 C-88.03817098 13.31079223 -90.71865673 13.14183622 -93.39926147 12.97427368 C-99.57068248 12.58631389 -105.74137596 12.18389362 -111.90805054 11.72622681 C-112.714198 11.6667688 -113.52034546 11.60731079 -114.35092163 11.54605103 C-116.25961304 11.29653931 -116.25961304 11.29653931 -118.25961304 10.29653931 C-118.25961304 8.97653931 -118.25961304 7.65653931 -118.25961304 6.29653931 C-88.64253535 -8.51199954 -32.21308042 0.15304996 0 0 Z " fill="#01AFF1" transform="translate(608.2596130371094,721.7034606933594)"/>
<path d="M0 0 C2.12135205 -0.01382536 4.24267984 -0.03215056 6.36395264 -0.05511475 C9.35573097 -0.08495329 12.34692596 -0.09463817 15.33883667 -0.09896851 C16.24813431 -0.11125992 17.15743195 -0.12355133 18.09428406 -0.13621521 C24.28949752 -0.11459665 24.28949752 -0.11459665 27.51754761 1.56997681 C28.94821167 3.22915649 28.94821167 3.22915649 29.44821167 6.10415649 C28.84338479 9.8843245 27.58993259 11.5097379 24.94821167 14.22915649 C22.44970164 15.47841151 20.73983923 15.36959522 17.94332886 15.39028931 C16.36195885 15.40450424 16.36195885 15.40450424 14.74864197 15.41900635 C13.59246872 15.42338715 12.43629547 15.42776794 11.24508667 15.43228149 C10.03988876 15.43915985 8.83469086 15.44603821 7.5929718 15.453125 C3.62803858 15.47049792 -0.33682587 15.47680513 -4.30178833 15.47915649 C-4.97447628 15.48004021 -5.64716423 15.48092392 -6.34023666 15.48183441 C-25.21862219 15.5039146 -44.02220515 15.14958446 -62.86428833 13.85415649 C-63.79430664 13.79103271 -64.72432495 13.72790894 -65.68252563 13.66287231 C-76.53497654 12.90689588 -87.2888154 11.82117319 -98.05178833 10.22915649 C-98.38178833 8.90915649 -98.71178833 7.58915649 -99.05178833 6.22915649 C-92.71952086 4.68142816 -86.67185244 3.80600803 -80.17288208 3.41275024 C-79.25246124 3.35159027 -78.33204041 3.2904303 -77.38372803 3.22741699 C-74.41935195 3.0327949 -71.45444753 2.84892973 -68.48928833 2.66665649 C-66.42409493 2.53616547 -64.35890942 2.40554958 -62.29373169 2.27481079 C-57.36868908 1.96600293 -52.44306278 1.66826529 -47.51699829 1.37625122 C-45.45970286 1.25349603 -43.40268089 1.12616876 -41.34573364 0.99771118 C-27.58198154 0.15244956 -13.78586771 0.08149553 0 0 Z " fill="#0176F0" transform="translate(577.0517883300781,811.7708435058594)"/>
<path d="M0 0 C1.65 0.99 3.3 1.98 5 3 C6.07831589 3.56300812 7.15663177 4.12601624 8.2676239 4.70608521 C17.24222169 9.9218294 17.24222169 9.9218294 19.25234985 15.43450928 C19.77152905 19.60898483 19.89145269 23.60677913 19.83203125 27.8046875 C19.84844622 29.33492914 19.86825886 30.86513769 19.89128113 32.39529419 C19.9238528 35.59249232 19.90836527 38.78497747 19.85961914 41.98193359 C19.80236632 46.05430745 19.87735728 50.11220322 19.98570442 54.18307114 C20.53260531 77.98052984 20.53260531 77.98052984 16.36810303 84.58996582 C12.22613669 88.87323239 7.62221398 91.1865289 2 93 C1.34 93 0.68 93 0 93 C0 62.31 0 31.62 0 0 Z " fill="#013081" transform="translate(274,499)"/>
<path d="M0 0 C0.33 0 0.66 0 1 0 C1.02505615 0.71655762 1.0501123 1.43311523 1.07592773 2.17138672 C1.19169751 5.40611514 1.31450969 8.64053841 1.4375 11.875 C1.47681641 13.00292969 1.51613281 14.13085938 1.55664062 15.29296875 C1.59853516 16.36933594 1.64042969 17.44570313 1.68359375 18.5546875 C1.72025146 19.54968262 1.75690918 20.54467773 1.79467773 21.56982422 C1.84959532 24.00779501 1.84959532 24.00779501 3 26 C3.08818315 28.91363535 3.11520539 31.80303622 3.09765625 34.71655273 C3.09619598 35.61910797 3.09473572 36.52166321 3.0932312 37.4515686 C3.08941965 39.41537965 3.08329729 41.37918724 3.07516479 43.34298515 C3.06244001 46.44823264 3.05589548 49.55343759 3.05102539 52.65870667 C3.03762845 60.37226549 3.01343122 68.08578398 2.98962402 75.79931641 C2.96992592 82.31298148 2.95427071 88.82663161 2.94406128 95.34031868 C2.9375622 98.40426935 2.92505306 101.46815888 2.91235352 104.53208923 C2.90872166 106.40607652 2.90536985 108.28006437 2.90234375 110.15405273 C2.89717743 111.0097435 2.89201111 111.86543427 2.88668823 112.74705505 C2.88638773 116.08797477 2.93590985 118.80772956 4 122 C3.67 122.99 3.34 123.98 3 125 C2.34 125 1.68 125 1 125 C0.09418503 121.90479994 -0.12359478 119.14537076 -0.12025452 115.925354 C-0.12231651 114.38993706 -0.12231651 114.38993706 -0.12442017 112.82350159 C-0.12082489 111.70644333 -0.11722961 110.58938507 -0.11352539 109.43847656 C-0.11367142 108.25771042 -0.11381744 107.07694427 -0.1139679 105.86039734 C-0.11339088 102.62724892 -0.10837784 99.39414385 -0.10139394 96.16100407 C-0.09513987 92.78041332 -0.09455497 89.39982171 -0.09336853 86.01922607 C-0.09026128 79.61968579 -0.08205604 73.2201626 -0.07201904 66.82062984 C-0.06083911 59.53410009 -0.05534271 52.24756953 -0.05032361 44.96103334 C-0.03987293 29.97401271 -0.0222852 14.98700806 0 0 Z " fill="#0164E8" transform="translate(292,487)"/>
<path d="M0 0 C0 0.66 0 1.32 0 2 C0.94875 2.28875 1.8975 2.5775 2.875 2.875 C6 4 6 4 8 6 C8.99 6.495 8.99 6.495 10 7 C10 7.66 10 8.32 10 9 C10.5775 9.2475 11.155 9.495 11.75 9.75 C14.3002997 11.16683317 16.01785701 12.87627537 18 15 C17.505 16.485 17.505 16.485 17 18 C16.47792969 17.43152344 15.95585938 16.86304688 15.41796875 16.27734375 C1.43187364 1.6054156 -15.94648241 -5.70419498 -36.0625 -6.3125 C-54.33994656 -6.13099606 -68.87417179 1.65725291 -82.22265625 13.546875 C-84.42250421 15.48991933 -86.6204229 17.28807403 -89 19 C-85.81692222 11.47636161 -79.98356609 6.86908769 -73 3 C-72.34 3 -71.68 3 -71 3 C-71 2.34 -71 1.68 -71 1 C-64.25 -2 -64.25 -2 -62 -2 C-61.67 -2.66 -61.34 -3.32 -61 -4 C-58.41796875 -5.03515625 -58.41796875 -5.03515625 -55.1875 -6.0625 C-53.60001953 -6.57490234 -53.60001953 -6.57490234 -51.98046875 -7.09765625 C-34.78722364 -12.30295064 -15.35067399 -9.00376071 0 0 Z " fill="#01C6DB" transform="translate(585,473)"/>
<path d="M0 0 C0.625 1.8125 0.625 1.8125 1 4 C0.01 5.485 0.01 5.485 -1 7 C-1.66 7 -2.32 7 -3 7 C-2.67 8.32 -2.34 9.64 -2 11 C0.97 11.495 0.97 11.495 4 12 C4 11.67 4 11.34 4 11 C5.98 11 7.96 11 10 11 C10 11.33 10 11.66 10 12 C10.68707031 12 11.37414062 12 12.08203125 12 C17.98281885 12 23.80117959 12.0337568 29.6875 12.5 C30.86699219 12.5928125 32.04648437 12.685625 33.26171875 12.78125 C34.61716797 12.88953125 34.61716797 12.88953125 36 13 C36 12.34 36 11.68 36 11 C36.66 11.33 37.32 11.66 38 12 C39.49481021 12.10388627 40.99409228 12.14648618 42.49246216 12.15821838 C43.43759674 12.1680072 44.38273132 12.17779602 45.35650635 12.18788147 C46.91664459 12.19651466 46.91664459 12.19651466 48.50830078 12.20532227 C50.14733871 12.22017166 50.14733871 12.22017166 51.81948853 12.23532104 C55.44474086 12.2670031 59.07000632 12.29171998 62.6953125 12.31640625 C65.20352527 12.33696999 67.71173452 12.3579663 70.21994019 12.37937927 C76.1555654 12.42900433 82.09121383 12.4742541 88.02688873 12.51740164 C95.44634784 12.57160175 102.86574876 12.63256374 110.28515625 12.69335938 C123.52339793 12.80101418 136.76167888 12.90263076 150 13 C150 13.33 150 13.66 150 14 C130.08582936 14.04666904 110.17166977 14.08196379 90.25745583 14.10362434 C81.0114624 14.11394791 71.7655029 14.12802881 62.51953125 14.15087891 C54.46309365 14.17077979 46.40668062 14.18370857 38.35021913 14.18817699 C34.0822606 14.19078998 29.81437236 14.19695393 25.54643631 14.21146011 C21.53280998 14.22499195 17.51928319 14.22923161 13.50563622 14.22621536 C12.02936831 14.22676751 10.55309722 14.23077109 9.07684898 14.23841095 C7.06758379 14.2483029 5.0582657 14.24479097 3.04898071 14.24050903 C1.35933417 14.24327441 1.35933417 14.24327441 -0.36444664 14.24609566 C-3 14 -3 14 -5 12 C-5.55838569 9.20807153 -5.33902311 7.56936982 -3.87890625 5.1171875 C-2.63060125 3.37026776 -1.34816055 1.67075611 0 0 Z " fill="#024DA6" transform="translate(611,841)"/>
<path d="M0 0 C2.36975667 0.94790267 3.73082468 1.57683623 5.11961365 3.76011658 C6.14372577 6.36566784 6.23466216 8.29192316 6.21118164 11.08813477 C6.20780289 12.09920792 6.20442413 13.11028107 6.20094299 14.1519928 C6.18748337 15.23749924 6.17402374 16.32300568 6.16015625 17.44140625 C6.15495468 18.56062973 6.14975311 19.67985321 6.14439392 20.83299255 C6.1265763 24.40962681 6.09540028 27.98597513 6.0625 31.5625 C6.0348964 35.14256748 6.01018803 38.72259469 5.99131775 42.30271912 C5.97904752 44.53083441 5.96143125 46.75892782 5.93800354 48.98695374 C5.92820717 50.49883522 5.92820717 50.49883522 5.91821289 52.04125977 C5.90995987 52.92854263 5.90170685 53.8158255 5.89320374 54.72999573 C5.90499634 57.16714778 5.90499634 57.16714778 7 60 C13.29991434 59.75534313 17.26395519 59.48004238 22 55 C24.28259799 53.47826801 26.54469235 52.2508171 29 51 C29.66 51.33 30.32 51.66 31 52 C28.5374634 53.73253563 26.07198782 55.46010549 23.59765625 57.17578125 C22.12747084 58.20822724 20.6675627 59.25691702 19.24609375 60.35546875 C16.58640859 62.36291504 14.76143042 63.03766888 11.4375 63.5625 C8 63 8 63 5.32495117 61.24072266 C1.76057816 56.27238418 2.31110646 51.55569125 2.36328125 45.5859375 C2.35290329 44.37934479 2.34252533 43.17275208 2.33183289 41.92959595 C2.3021292 38.07777416 2.30553234 34.22691579 2.3125 30.375 C2.30361874 26.51621347 2.28771353 22.65768558 2.2610321 18.79898071 C2.24607156 16.39845118 2.24234027 13.99782073 2.25080872 11.59725952 C2.24707748 10.51248322 2.24334625 9.42770691 2.23950195 8.31005859 C2.24125931 7.35473236 2.24301666 6.39940613 2.24482727 5.41513062 C2.16381668 2.73877367 2.16381668 2.73877367 0 0 Z " fill="#042FD2" transform="translate(352,670)"/>
<path d="M0 0 C0 3 0 3 -2.44921875 5.7421875 C-3.5211532 6.79414802 -4.60095717 7.83813498 -5.6875 8.875 C-6.48317383 9.65037109 -6.48317383 9.65037109 -7.29492188 10.44140625 C-8.85911724 11.9652972 -10.42903051 13.48309732 -12 15 C-15.64601669 18.54121439 -18.70841212 22.05009454 -22 26 C-6.49 26 9.02 26 25 26 C24.67 26.66 24.34 27.32 24 28 C7.83 28 -8.34 28 -25 28 C-23.87463676 22.37318381 -23.87463676 22.37318381 -21.33984375 19.9140625 C-20.7969873 19.37894043 -20.25413086 18.84381836 -19.69482422 18.29248047 C-19.11490723 17.74221191 -18.53499023 17.19194336 -17.9375 16.625 C-17.34984863 16.05281738 -16.76219727 15.48063477 -16.15673828 14.89111328 C-12.40498108 11.26300641 -8.5775484 7.73129625 -4.5859375 4.3671875 C-2.97717593 2.98032408 -1.48334641 1.51930632 0 0 Z " fill="#00AFCB" transform="translate(865,827)"/>
<path d="M0 0 C5.08067215 1.62701289 8.9527604 4.6772651 13.1875 7.8125 C14.78891447 8.98457728 16.39048162 10.15644598 17.9921875 11.328125 C18.81428711 11.93205078 19.63638672 12.53597656 20.48339844 13.15820312 C25.32277181 16.69994087 30.20094188 20.18823672 35.07299805 23.68481445 C35.777229 24.19230225 36.48145996 24.69979004 37.20703125 25.22265625 C37.8203833 25.66359619 38.43373535 26.10453613 39.06567383 26.55883789 C39.70400146 27.03442139 40.3423291 27.51000488 41 28 C41.89315918 28.54229248 42.78631836 29.08458496 43.70654297 29.64331055 C46.44144272 32.45361365 46.56844584 34.24499423 46.56648254 38.09442139 C46.54067612 38.88310608 46.51486969 39.67179077 46.48828125 40.484375 C46.48120651 41.29996887 46.47413177 42.11556274 46.46684265 42.95587158 C46.43890544 45.55485681 46.37617281 48.15166872 46.3125 50.75 C46.28741605 52.51429175 46.26460304 54.27861735 46.24414062 56.04296875 C46.18908154 60.36281356 46.10281735 64.68103863 46 69 C45.67 69 45.34 69 45 69 C44.9906543 67.96069336 44.98130859 66.92138672 44.97167969 65.85058594 C44.93175877 61.98866162 44.86599522 58.1275322 44.79248047 54.26611328 C44.76428282 52.59596989 44.74306221 50.92569335 44.72900391 49.25537109 C44.70755663 46.85184628 44.66090155 44.44992017 44.609375 42.046875 C44.60814636 41.30193787 44.60691772 40.55700073 44.60565186 39.78948975 C44.5081933 36.32767042 44.26814526 34.35361215 42.14941406 31.55957031 C39.99330338 29.83044167 39.99330338 29.83044167 37 29 C36.4225 28.401875 35.845 27.80375 35.25 27.1875 C32.41123188 24.42758655 29.48194194 22.87489181 26 21 C26 20.34 26 19.68 26 19 C25.47921875 18.76796875 24.9584375 18.5359375 24.421875 18.296875 C21.16750653 16.55421318 18.23332079 14.41145064 15.25 12.25 C14.63108887 11.80406494 14.01217773 11.35812988 13.37451172 10.89868164 C11.58014662 9.60301205 9.78942442 8.30248157 8 7 C7.11054688 6.35417969 6.22109375 5.70835937 5.3046875 5.04296875 C3.51461046 3.72447114 1.75303264 2.36736546 0 1 C0 0.67 0 0.34 0 0 Z " fill="#0188EC" transform="translate(227,466)"/>
<path d="M0 0 C0.99 0.33 1.98 0.66 3 1 C-0.40264222 3.84786781 -3.80540901 6.14889851 -7.69140625 8.28515625 C-8.79250732 8.89351318 -9.8936084 9.50187012 -11.02807617 10.12866211 C-12.20615945 10.77338072 -13.38430188 11.41799128 -14.5625 12.0625 C-15.76886802 12.72687392 -16.97500222 13.39167258 -18.1809082 14.05688477 C-21.20785954 15.72530166 -24.23772149 17.38835177 -27.26843262 19.04992676 C-29.92301989 20.50644087 -32.57474829 21.96813222 -35.2265625 23.4296875 C-39.81513206 25.95783926 -44.40657269 28.48068582 -49 31 C-49 30.01 -49 29.02 -49 28 C-43.25 25 -43.25 25 -41 25 C-41 24.34 -41 23.68 -41 23 C-39.21046815 22.16209211 -37.41830305 21.32980604 -35.625 20.5 C-34.62726562 20.0359375 -33.62953125 19.571875 -32.6015625 19.09375 C-30 18 -30 18 -28 18 C-28 17.34 -28 16.68 -28 16 C-27.071875 15.54625 -26.14375 15.0925 -25.1875 14.625 C-21.96078611 13.0578367 -21.96078611 13.0578367 -19 11 C-18.01 11 -17.02 11 -16 11 C-15.67 10.34 -15.34 9.68 -15 9 C-14.01 9 -13.02 9 -12 9 C-12 8.34 -12 7.68 -12 7 C-11.21753906 6.57847656 -10.43507813 6.15695312 -9.62890625 5.72265625 C-8.61699219 5.17480469 -7.60507812 4.62695312 -6.5625 4.0625 C-5.55316406 3.51722656 -4.54382813 2.97195313 -3.50390625 2.41015625 C-1.13329507 1.22300532 -1.13329507 1.22300532 0 0 Z " fill="#01C8EE" transform="translate(832,720)"/>
<path d="M0 0 C1.39195915 4.17587745 -0.17676781 6.13474776 -2 10 C-2.66 10 -3.32 10 -4 10 C-3.34 12.31 -2.68 14.62 -2 17 C-0.77035522 16.99214478 -0.77035522 16.99214478 0.48413086 16.98413086 C30.59611391 16.81727622 30.59611391 16.81727622 45 18 C45 18.33 45 18.66 45 19 C38.05829978 19.05058729 31.11664685 19.08568579 24.17480469 19.10986328 C21.81183089 19.11993924 19.44886961 19.13360029 17.0859375 19.15087891 C13.69528112 19.17505724 10.30478916 19.18646699 6.9140625 19.1953125 C5.85256989 19.20563507 4.79107727 19.21595764 3.69741821 19.22659302 C2.71655243 19.22674408 1.73568665 19.22689514 0.72509766 19.22705078 C-0.57396011 19.23371262 -0.57396011 19.23371262 -1.89926147 19.24050903 C-4 19 -4 19 -6 17 C-5.79428655 11.03431009 -4.40549472 4.40549472 0 0 Z " fill="#017CEC" transform="translate(697,761)"/>
<path d="M0 0 C1.19882812 0.07250977 1.19882812 0.07250977 2.421875 0.14648438 C3.659375 0.2305957 3.659375 0.2305957 4.921875 0.31640625 C5.76234375 0.36861328 6.6028125 0.42082031 7.46875 0.47460938 C9.5368102 0.60386314 11.6043972 0.74064899 13.671875 0.87890625 C13.671875 1.20890625 13.671875 1.53890625 13.671875 1.87890625 C12.61871094 1.9046875 11.56554687 1.93046875 10.48046875 1.95703125 C-10.03538747 2.67091789 -26.13213981 8.69225063 -41.55078125 22.42578125 C-43.75062921 24.36882558 -45.9485479 26.16698028 -48.328125 27.87890625 C-45.14504722 20.35526786 -39.31169109 15.74799394 -32.328125 11.87890625 C-31.668125 11.87890625 -31.008125 11.87890625 -30.328125 11.87890625 C-30.328125 11.21890625 -30.328125 10.55890625 -30.328125 9.87890625 C-23.578125 6.87890625 -23.578125 6.87890625 -21.328125 6.87890625 C-20.998125 6.21890625 -20.668125 5.55890625 -20.328125 4.87890625 C-17.74609375 3.84375 -17.74609375 3.84375 -14.515625 2.81640625 C-12.92814453 2.30400391 -12.92814453 2.30400391 -11.30859375 1.78125 C-7.33686079 0.57879874 -4.16606754 -0.26781863 0 0 Z " fill="#01CFEE" transform="translate(544.328125,464.12109375)"/>
<path d="M0 0 C0.91007812 -0.03738281 1.82015625 -0.07476562 2.7578125 -0.11328125 C10.27881668 0.91402383 16.25166716 5.80142307 22.125 10.3125 C22.81851563 10.83328125 23.51203125 11.3540625 24.2265625 11.890625 C27.67744191 14.50853352 30.91097018 17.13457112 33.875 20.3125 C30.24205829 19.00476892 27.43285046 17.4331365 24.37109375 15.08984375 C23.54802734 14.46916016 22.72496094 13.84847656 21.87695312 13.20898438 C20.16296646 11.89967087 18.44942685 10.58977194 16.73632812 9.27929688 C15.91455078 8.65990234 15.09277344 8.04050781 14.24609375 7.40234375 C13.50286865 6.83378662 12.75964355 6.26522949 11.99389648 5.67944336 C7.15948692 2.5606671 1.44841694 2.81243812 -4.125 3.3125 C-8.34220136 5.13356422 -11.657238 8.32861177 -15.125 11.3125 C-14.56497584 7.77590908 -13.44725676 6.35690308 -10.6875 4.125 C-10.07003906 3.61582031 -9.45257813 3.10664063 -8.81640625 2.58203125 C-5.80899449 0.32473605 -3.72132524 0.09847518 0 0 Z " fill="#0288E7" transform="translate(192.125,444.6875)"/>
<path d="M0 0 C0.66 0 1.32 0 2 0 C2.77939054 18.07753054 -0.54326931 31.82197962 -12.875 45.625 C-14.24179094 47.09102989 -15.61385864 48.55225236 -17 50 C-17 47 -17 47 -15.49609375 45.265625 C-14.81675781 44.60046875 -14.13742187 43.9353125 -13.4375 43.25 C-6.42949809 35.68085914 -1.17468881 24.83627765 -0.68359375 14.453125 C-0.64169922 13.60878906 -0.59980469 12.76445313 -0.55664062 11.89453125 C-0.51732422 11.02183594 -0.47800781 10.14914062 -0.4375 9.25 C-0.39431641 8.36183594 -0.35113281 7.47367188 -0.30664062 6.55859375 C-0.20086385 4.37254037 -0.09877454 2.18637911 0 0 Z " fill="#00C6EA" transform="translate(829,784)"/>
<path d="M0 0 C0.625 1.8125 0.625 1.8125 1 4 C0.01 5.485 0.01 5.485 -1 7 C-1.66 7 -2.32 7 -3 7 C-2.67 8.32 -2.34 9.64 -2 11 C0.97 11.495 0.97 11.495 4 12 C4 11.67 4 11.34 4 11 C5.98 11 7.96 11 10 11 C10 11.33 10 11.66 10 12 C10.68707031 12 11.37414062 12 12.08203125 12 C17.98281885 12 23.80117959 12.0337568 29.6875 12.5 C30.86699219 12.5928125 32.04648437 12.685625 33.26171875 12.78125 C34.61716797 12.88953125 34.61716797 12.88953125 36 13 C36 12.34 36 11.68 36 11 C37.32 11.66 38.64 12.32 40 13 C40 13.33 40 13.66 40 14 C33.91277254 14.04934154 27.8256608 14.08569167 21.73828125 14.10986328 C19.66632053 14.11993712 17.59437407 14.13359666 15.52246094 14.15087891 C12.54879236 14.17506664 9.5753113 14.18646908 6.6015625 14.1953125 C5.20618759 14.21079636 5.20618759 14.21079636 3.78262329 14.22659302 C2.92188202 14.22674408 2.06114075 14.22689514 1.17431641 14.22705078 C0.41486725 14.231492 -0.34458191 14.23593323 -1.12704468 14.24050903 C-3 14 -3 14 -5 12 C-5.55838569 9.20807153 -5.33902311 7.56936982 -3.87890625 5.1171875 C-2.63060125 3.37026776 -1.34816055 1.67075611 0 0 Z " fill="#0B25B4" transform="translate(611,841)"/>
<path d="M0 0 C1.97530067 3.30521577 2.24647267 5.78897198 2.23046875 9.61328125 C2.22853516 10.69673828 2.22660156 11.78019531 2.22460938 12.89648438 C2.21236328 14.02376953 2.20011719 15.15105469 2.1875 16.3125 C2.18685547 17.42818359 2.18621094 18.54386719 2.18554688 19.69335938 C2.15602325 25.22739968 1.98300281 30.5502324 1 36 C-0.75 36.6875 -0.75 36.6875 -3 37 C-5.25 35.5625 -5.25 35.5625 -7 34 C-6.67 33.34 -6.34 32.68 -6 32 C-4.35 32.99 -2.7 33.98 -1 35 C-1.00523682 34.11739502 -1.01047363 33.23479004 -1.01586914 32.32543945 C-1.03295971 29.03604473 -1.04547384 25.74669753 -1.05493164 22.45727539 C-1.05994565 21.03636936 -1.06675852 19.61546844 -1.07543945 18.19458008 C-1.08763388 16.14663424 -1.09325772 14.0987569 -1.09765625 12.05078125 C-1.10289307 10.82012939 -1.10812988 9.58947754 -1.11352539 8.3215332 C-1.01393817 5.40780381 -0.67799322 2.82692674 0 0 Z " fill="#014CE0" transform="translate(363,610)"/>
<path d="M0 0 C0.66 0 1.32 0 2 0 C2.62648438 1.14339844 3.25296875 2.28679688 3.8984375 3.46484375 C4.72366998 4.9558888 5.54920658 6.44676555 6.375 7.9375 C6.7875 8.69224609 7.2 9.44699219 7.625 10.22460938 C8.02460938 10.94326172 8.42421875 11.66191406 8.8359375 12.40234375 C9.38580322 13.39995728 9.38580322 13.39995728 9.94677734 14.41772461 C10.9231556 16.16856006 10.9231556 16.16856006 13 17 C13.42925781 17.75925781 13.85851562 18.51851562 14.30078125 19.30078125 C16.23847969 22.37882635 18.28294836 24.02061227 21.1875 26.1875 C22.82614571 27.41355395 24.44058069 28.67463987 26 30 C26 30.66 26 31.32 26 32 C26.763125 32.0825 27.52625 32.165 28.3125 32.25 C31.52373261 33.14615794 32.29374499 34.21611025 34 37 C19.75518293 32.86241585 9.29517514 19.02982713 2.27734375 6.62890625 C1.18375081 4.37817827 0.46808107 2.44442338 0 0 Z " fill="#0339E2" transform="translate(298,626)"/>
<path d="M0 0 C0.66 0.33 1.32 0.66 2 1 C0.97060303 2.0058313 0.97060303 2.0058313 -0.07958984 3.03198242 C-2.6329925 5.53092782 -5.17632512 8.03991747 -7.71679688 10.55200195 C-8.81597853 11.63613297 -9.91784243 12.71755168 -11.02246094 13.79614258 C-12.61332262 15.35045744 -14.19415973 16.91439575 -15.7734375 18.48046875 C-16.51259903 19.1964045 -16.51259903 19.1964045 -17.26669312 19.92680359 C-20.08902015 22.74774135 -21.80707039 25.18201969 -23 29 C-22.34 29 -21.68 29 -21 29 C-21 29.66 -21 30.32 -21 31 C-21.99 30.67 -22.98 30.34 -24 30 C-23.86268133 22.96928411 -20.76677852 19.84319575 -15.9375 15 C-15.29361328 14.32710937 -14.64972656 13.65421875 -13.98632812 12.9609375 C-9.54710873 8.37566203 -4.86175674 4.13148456 0 0 Z " fill="#044AE1" transform="translate(673,685)"/>
<path d="M0 0 C10.03149706 7.65937667 15.46682554 19.80503833 18 32 C18.25105375 34.77414397 18.2185101 37.21399627 18 40 C17.34 39.67 16.68 39.34 16 39 C15.69140625 37.21484375 15.69140625 37.21484375 15.5625 34.9375 C15.27373521 31.57927247 14.69559155 28.81509208 13.4375 25.6875 C12 22 12 22 12 18 C11.34 17.67 10.68 17.34 10 17 C9.375 14.4375 9.375 14.4375 9 12 C8.01 12 7.02 12 6 12 C6 11.01 6 10.02 6 9 C5.34 8.67 4.68 8.34 4 8 C0 2 0 2 0 0 Z " fill="#00E2DB" transform="translate(639,427)"/>
<path d="M0 0 C0.66 0.33 1.32 0.66 2 1 C-8.10286618 9.37943607 -22.48077418 17.64732941 -36 17 C-32.35385103 15.00528746 -28.49540675 13.73309098 -24.5625 12.4375 C-23.90701172 12.21642578 -23.25152344 11.99535156 -22.57617188 11.76757812 C-19.75537697 10.83108553 -17.0171418 10.00310623 -14.08984375 9.47265625 C-13.40019531 9.31667969 -12.71054687 9.16070313 -12 9 C-11.67 8.34 -11.34 7.68 -11 7 C-9.33720673 5.9935725 -7.67016516 4.99414593 -6 4 C-5.46375 3.46375 -4.9275 2.9275 -4.375 2.375 C-3 1 -3 1 0 0 Z " fill="#00B4EE" transform="translate(807,835)"/>
<path d="M0 0 C13.3263815 -0.45661459 24.74777512 -0.00639078 36 8 C35.34 8.33 34.68 8.66 34 9 C31.828125 8.2578125 31.828125 8.2578125 29.25 7.125 C25.4862207 5.54312175 22.09172196 4.43070758 18 4 C18 3.34 18 2.68 18 2 C12.06 2 6.12 2 0 2 C0 1.34 0 0.68 0 0 Z " fill="#01B9F0" transform="translate(779,755)"/>
<path d="M0 0 C0 3 0 3 -2.44921875 5.7421875 C-3.5211532 6.79414802 -4.60095717 7.83813498 -5.6875 8.875 C-6.48317383 9.65037109 -6.48317383 9.65037109 -7.29492188 10.44140625 C-8.35190687 11.47115605 -9.41113876 12.49860479 -10.47265625 13.52368164 C-15.30416716 18.18770319 -15.30416716 18.18770319 -19.625 23.3125 C-20.800625 24.6428125 -20.800625 24.6428125 -22 26 C-22.99 26 -23.98 26 -25 26 C-23.3830783 21.91873377 -20.45727174 19.19393543 -17.375 16.1875 C-16.57074585 15.39291382 -16.57074585 15.39291382 -15.75024414 14.58227539 C-12.15356042 11.05458246 -8.46994695 7.65524549 -4.62109375 4.40234375 C-3.00223886 3.00193675 -1.49481669 1.53116482 0 0 Z " fill="#03B3E0" transform="translate(865,827)"/>
<path d="M0 0 C6.29331012 1.22796295 9.48426383 4.9247903 13 10 C14.829456 14.17115967 15.14694194 16.21185689 14.3125 20.6875 C13.15339308 23.6128651 12.06291656 25.65577663 10 28 C9.01 27.67 8.02 27.34 7 27 C7.66 26.195625 8.32 25.39125 9 24.5625 C11.67119355 20.52708975 11.81950038 16.69734239 11 12 C8.43530775 6.66544011 4.77611466 4.21469256 0 1 C0 0.67 0 0.34 0 0 Z " fill="#01A6E9" transform="translate(764,781)"/>
<path d="M0 0 C-1.14008067 3.42024202 -1.81052184 3.79913481 -4.6875 5.75 C-9.94823892 9.55203671 -13.7637727 13.99026985 -17.25 19.4375 C-17.8275 20.283125 -18.405 21.12875 -19 22 C-19.66 22 -20.32 22 -21 22 C-18.68835803 14.6027457 -8.61480808 0 0 0 Z " fill="#036EEA" transform="translate(386,585)"/>
<path d="M0 0 C0.33 0 0.66 0 1 0 C1.33 16.17 1.66 32.34 2 49 C2.66 49.33 3.32 49.66 4 50 C4 50.66 4 51.32 4 52 C2.02 52.495 2.02 52.495 0 53 C0 35.51 0 18.02 0 0 Z " fill="#191C27" transform="translate(1046,426)"/>
<path d="M0 0 C1.65 0 3.3 0 5 0 C2.07047296 2.30476056 -0.92595734 4.14601182 -4.203125 5.91796875 C-5.67265625 6.71557617 -5.67265625 6.71557617 -7.171875 7.52929688 C-8.18765625 8.07650391 -9.2034375 8.62371094 -10.25 9.1875 C-11.28125 9.74630859 -12.3125 10.30511719 -13.375 10.88085938 C-15.91513696 12.2567669 -18.45683493 13.6297 -21 15 C-21 14.01 -21 13.02 -21 12 C-15.25 9 -15.25 9 -13 9 C-13 8.34 -13 7.68 -13 7 C-11.21046815 6.16209211 -9.41830305 5.32980604 -7.625 4.5 C-6.62726562 4.0359375 -5.62953125 3.571875 -4.6015625 3.09375 C-2 2 -2 2 0 2 C0 1.34 0 0.68 0 0 Z " fill="#01B8EA" transform="translate(804,736)"/>
<path d="M0 0 C-2.79026919 2.1292487 -5.64794083 4.10825686 -8.5625 6.0625 C-14.52944921 10.20646175 -19.72812901 15.01878349 -25 20 C-25 15.98015845 -23.52293864 14.76484167 -20.92578125 11.8515625 C-17.64202758 8.69436324 -12.75470265 4 -8 4 C-8 3.34 -8 2.68 -8 2 C-4.77208445 -0.1519437 -3.71599191 -0.20086443 0 0 Z " fill="#00BCE8" transform="translate(522,472)"/>
<path d="M0 0 C4.29007301 3.78535854 6.73506543 7.82075066 9.375 12.890625 C10.85963983 15.24394485 10.85963983 15.24394485 13.6875 15.796875 C14.450625 15.86390625 15.21375 15.9309375 16 16 C16 16.99 16 17.98 16 19 C13.6875 19.25 13.6875 19.25 11 19 C9.375 17.3125 9.375 17.3125 8 15 C7.50242187 14.18402344 7.00484375 13.36804688 6.4921875 12.52734375 C5.99976563 11.69332031 5.50734375 10.85929687 5 10 C4.04325737 8.51980395 3.08505455 7.04055009 2.125 5.5625 C0 2.25471698 0 2.25471698 0 0 Z " fill="#02A3E2" transform="translate(467,493)"/>
<path d="M0 0 C2.38437066 3.68161447 2.06634817 6.52649475 1.6875 10.8125 C1.57778048 12.14320081 1.46841665 13.47393098 1.359375 14.8046875 C1.29943359 15.49014648 1.23949219 16.17560547 1.17773438 16.88183594 C0.88276452 20.39716345 0.66353609 23.91718932 0.4375 27.4375 C0.29166667 29.625 0.14583333 31.8125 0 34 C-0.33 34 -0.66 34 -1 34 C-1.02476851 29.80078534 -1.04289246 25.60160971 -1.05493164 21.40234375 C-1.05995206 19.97460184 -1.06676972 18.54686504 -1.07543945 17.11914062 C-1.08760553 15.06378921 -1.09325128 13.00850593 -1.09765625 10.953125 C-1.10289307 9.71723633 -1.10812988 8.48134766 -1.11352539 7.20800781 C-1.02071737 4.5854329 -0.78356673 2.48355406 0 0 Z " fill="#0084F9" transform="translate(294,477)"/>
<path d="M0 0 C0.33 0 0.66 0 1 0 C0.67 3.3 0.34 6.6 0 10 C8.58 10 17.16 10 26 10 C26 10.33 26 10.66 26 11 C16.76 11.33 7.52 11.66 -2 12 C-2 4.125 -2 4.125 0 0 Z " fill="#01C6E9" transform="translate(860,704)"/>
<path d="M0 0 C0 0.33 0 0.66 0 1 C-1.41152344 1.09087891 -1.41152344 1.09087891 -2.8515625 1.18359375 C-4.09679687 1.26738281 -5.34203125 1.35117187 -6.625 1.4375 C-7.85476563 1.51871094 -9.08453125 1.59992188 -10.3515625 1.68359375 C-13.61532388 1.96663944 -16.77943859 2.41038953 -20 3 C-20 3.66 -20 4.32 -20 5 C-23.55760365 7.61588503 -26.64477147 8.49357808 -31 9 C-22.55100604 -0.26025568 -11.69532344 -0.7189748 0 0 Z " fill="#3D3E44" transform="translate(916,508)"/>
<path d="M0 0 C1.39195915 4.17587745 -0.17676781 6.13474776 -2 10 C-2.66 10 -3.32 10 -4 10 C-2.87302957 14.96911366 -2.87302957 14.96911366 0 19 C-4.875 18.125 -4.875 18.125 -6 17 C-5.68465119 11.00837267 -4.43979383 4.43979383 0 0 Z " fill="#0353C7" transform="translate(697,761)"/>
<path d="M0 0 C5.75 1.75 5.75 1.75 8 4 C8.66 4.33 9.32 4.66 10 5 C10 5.66 10 6.32 10 7 C10.5775 7.2475 11.155 7.495 11.75 7.75 C14.3002997 9.16683317 16.01785701 10.87627537 18 13 C17.67 13.99 17.34 14.98 17 16 C16.443125 15.41992188 15.88625 14.83984375 15.3125 14.2421875 C10.93102696 9.75709854 6.56988669 5.6981661 1.43359375 2.09375 C0.96050781 1.7328125 0.48742187 1.371875 0 1 C0 0.67 0 0.34 0 0 Z " fill="#01D0E2" transform="translate(585,475)"/>
<path d="M0 0 C2.10353495 -0.0810206 4.20795952 -0.13919907 6.3125 -0.1875 C7.48425781 -0.22230469 8.65601563 -0.25710938 9.86328125 -0.29296875 C13 0 13 0 14.91796875 1.51171875 C15.45357422 2.24841797 15.45357422 2.24841797 16 3 C9.66666667 3 3.33333333 3 -3 3 C-2.01 2.67 -1.02 2.34 0 2 C0 1.34 0 0.68 0 0 Z " fill="#0399DF" transform="translate(408,510)"/>
<path d="M0 0 C2.24707241 0.2198223 4.49771238 0.40483987 6.75 0.5625 C7.92046875 0.64628906 9.0909375 0.73007812 10.296875 0.81640625 C11.18890625 0.87699219 12.0809375 0.93757812 13 1 C13 1.33 13 1.66 13 2 C2.6094206 2.12288464 -7.63946908 1.83360594 -18 1 C-18 0.67 -18 0.34 -18 0 C-15.75067773 -0.1954625 -13.50049858 -0.38108226 -11.25 -0.5625 C-9.99703125 -0.66691406 -8.7440625 -0.77132812 -7.453125 -0.87890625 C-4.4860108 -0.98295663 -2.76909321 -0.79116949 0 0 Z " fill="#00BFD1" transform="translate(476,779)"/>
<path d="M0 0 C3.63 0 7.26 0 11 0 C11 0.33 11 0.66 11 1 C9.35 1 7.7 1 6 1 C6 1.66 6 2.32 6 3 C7.98 3 9.96 3 12 3 C12 3.33 12 3.66 12 4 C8.04 4 4.08 4 0 4 C0 2.68 0 1.36 0 0 Z " fill="#04DFEE" transform="translate(429,773)"/>
<path d="M0 0 C1.0828125 0.37125 1.0828125 0.37125 2.1875 0.75 C1.65125 1.141875 1.115 1.53375 0.5625 1.9375 C-1.33637626 3.38664241 -3.13109491 4.87903286 -4.9375 6.4375 C-7.8125 8.75 -7.8125 8.75 -9.8125 8.75 C-8.2839655 3.74752345 -5.72433694 -0.50882995 0 0 Z " fill="#01C5E4" transform="translate(876.8125,679.25)"/>
<path d="M0 0 C0.33 0.66 0.66 1.32 1 2 C-0.09346881 3.34212062 -1.2001575 4.67347975 -2.3125 6 C-3.23482422 7.11375 -3.23482422 7.11375 -4.17578125 8.25 C-6 10 -6 10 -9 10 C-8.06409496 8.8944811 -7.12620142 7.79064547 -6.1875 6.6875 C-5.66542969 6.07261719 -5.14335938 5.45773437 -4.60546875 4.82421875 C-3.12827531 3.14575321 -1.59960869 1.56117966 0 0 Z " fill="#02D5E4" transform="translate(915,779)"/>
<path d="M0 0 C0.66 0.33 1.32 0.66 2 1 C0.42687016 2.8223088 -1.15736799 4.63236793 -2.75 6.4375 C-3.41515625 7.2119043 -3.41515625 7.2119043 -4.09375 8.00195312 C-6.52915356 10.74178213 -8.24061317 12.65743905 -12 13 C-8.19524578 8.43969176 -4.25030379 4.14910608 0 0 Z " fill="#02D8DE" transform="translate(939,756)"/>
<path d="M0 0 C0.33 0 0.66 0 1 0 C1.01981934 0.59014893 1.03963867 1.18029785 1.06005859 1.78833008 C1.15534659 4.46350096 1.26500939 7.13789498 1.375 9.8125 C1.4059375 10.74126953 1.436875 11.67003906 1.46875 12.62695312 C1.50742187 13.51962891 1.54609375 14.41230469 1.5859375 15.33203125 C1.6173584 16.15421143 1.6487793 16.9763916 1.68115234 17.82348633 C1.88373622 20.28952937 1.88373622 20.28952937 4 23 C3.67 23.99 3.34 24.98 3 26 C2.34 26 1.68 26 1 26 C0.07446257 22.86149936 -0.11664647 20.06319222 -0.09765625 16.796875 C-0.09443359 15.8171875 -0.09121094 14.8375 -0.08789062 13.828125 C-0.07951172 12.81234375 -0.07113281 11.7965625 -0.0625 10.75 C-0.05798828 9.71875 -0.05347656 8.6875 -0.04882812 7.625 C-0.03706088 5.08327427 -0.02062011 2.54166681 0 0 Z " fill="#0343CD" transform="translate(292,586)"/>
<path d="M0 0 C0.625 1.8125 0.625 1.8125 1 4 C0.01 5.485 0.01 5.485 -1 7 C-1.66 7 -2.32 7 -3 7 C-2.72382467 8.94074861 -2.72382467 8.94074861 -2 11 C-1.01 11.66 -0.02 12.32 1 13 C-0.66611905 13.042721 -2.33382885 13.04063832 -4 13 C-5 12 -5 12 -5.375 9.875 C-4.83460213 5.73194964 -2.57633564 3.19281595 0 0 Z " fill="#1323E2" transform="translate(611,841)"/>
<path d="M0 0 C0 0.33 0 0.66 0 1 C-7.5431102 2.25718503 -14.4568898 2.25718503 -22 1 C-22 0.67 -22 0.34 -22 0 C-14.50280391 -1.14364008 -7.53181418 -0.75667376 0 0 Z " fill="#02BBD2" transform="translate(454,777)"/>
<path d="M0 0 C1.89551022 -0.05441656 3.7914792 -0.09298035 5.6875 -0.125 C6.74324219 -0.14820313 7.79898438 -0.17140625 8.88671875 -0.1953125 C12.02251859 0.00141271 14.17645373 0.66942346 17 2 C16.34 2.66 15.68 3.32 15 4 C12.79296875 3.79296875 12.79296875 3.79296875 10.1875 3.1875 C9.33542969 2.99542969 8.48335937 2.80335938 7.60546875 2.60546875 C6.74566406 2.40566406 5.88585937 2.20585937 5 2 C3.33440507 1.66135207 1.6680345 1.32641968 0 1 C0 0.67 0 0.34 0 0 Z " fill="#1E202C" transform="translate(762,476)"/>
<path d="M0 0 C0 0.99 0 1.98 0 3 C1.32 3.66 2.64 4.32 4 5 C-3.75 5.125 -3.75 5.125 -6 4 C-6 2.68 -6 1.36 -6 0 C-3.50907189 -1.24546405 -2.58919267 -0.7767578 0 0 Z " fill="#0488C2" transform="translate(496,728)"/>
<path d="M0 0 C-2.81521366 1.87680911 -5.14720546 2.87923181 -8.3125 4 C-9.28445313 4.34546875 -10.25640625 4.6909375 -11.2578125 5.046875 C-14.16375728 6.05691849 -17.07353682 7.05087681 -20 8 C-19.67 7.01 -19.34 6.02 -19 5 C-16.4375 4 -16.4375 4 -13 3 C-11.64328999 2.4647355 -10.28918084 1.92284034 -8.9375 1.375 C-5.8409228 0.19223827 -3.35160703 -0.31421316 0 0 Z " fill="#0356E6" transform="translate(467,671)"/>
<path d="M0 0 C0 3 0 3 -2.625 5.91796875 C-3.74249406 7.01550756 -4.86785643 8.10507895 -6 9.1875 C-6.57234375 9.74630859 -7.1446875 10.30511719 -7.734375 10.88085938 C-9.14962788 12.26073093 -10.57397155 13.63126734 -12 15 C-12.33 14.01 -12.66 13.02 -13 12 C-12.14535156 11.21753906 -11.29070313 10.43507813 -10.41015625 9.62890625 C-9.29425993 8.60678273 -8.17837511 7.58464667 -7.0625 6.5625 C-6.21655273 5.7880957 -6.21655273 5.7880957 -5.35351562 4.99804688 C-2.64001674 2.53775333 -2.64001674 2.53775333 0 0 Z " fill="#04C4EB" transform="translate(865,827)"/>
<path d="M0 0 C1.98 0 3.96 0 6 0 C6 0.33 6 0.66 6 1 C8.97 1.495 8.97 1.495 12 2 C12 2.33 12 2.66 12 3 C5.73 3 -0.54 3 -7 3 C-7 2.67 -7 2.34 -7 2 C-3.535 1.505 -3.535 1.505 0 1 C0 0.67 0 0.34 0 0 Z " fill="#0F1EBC" transform="translate(615,852)"/>
<path d="M0 0 C0.66 0.66 1.32 1.32 2 2 C-0.64 4.64 -3.28 7.28 -6 10 C-6.99 9.67 -7.98 9.34 -9 9 C-6.03 6.03 -3.06 3.06 0 0 Z " fill="#03C0E4" transform="translate(875,817)"/>
<path d="M0 0 C0.66 0.33 1.32 0.66 2 1 C0.71107323 3.87529818 -0.49296383 6.05008298 -3 8 C-5.6875 8.6875 -5.6875 8.6875 -8 9 C-7.04270084 7.87411986 -6.08412105 6.7493285 -5.125 5.625 C-4.59132813 4.99851562 -4.05765625 4.37203125 -3.5078125 3.7265625 C-2.38567993 2.44163349 -1.20628025 1.20628025 0 0 Z " fill="#DCDBDF" transform="translate(796,586)"/>
<path d="M0 0 C0.66 0.33 1.32 0.66 2 1 C0.04532248 2.33898399 -1.9133579 3.67129047 -3.875 5 C-4.96554687 5.7425 -6.05609375 6.485 -7.1796875 7.25 C-10 9 -10 9 -12 9 C-11.67 8.01 -11.34 7.02 -11 6 C-9.34561387 5.30341637 -7.67745682 4.63903117 -6 4 C-4.9805881 3.01979625 -3.97753644 2.02196992 -3 1 C-2.01 0.67 -1.02 0.34 0 0 Z " fill="#052FE1" transform="translate(395,712)"/>
<path d="M0 0 C0.99 0.33 1.98 0.66 3 1 C1.88321917 2.6721852 0.75633648 4.33762803 -0.375 6 C-1.00148438 6.928125 -1.62796875 7.85625 -2.2734375 8.8125 C-2.84320313 9.534375 -3.41296875 10.25625 -4 11 C-4.66 11 -5.32 11 -6 11 C-4.54955729 6.89041233 -2.48889248 3.56741255 0 0 Z " fill="#0262E6" transform="translate(371,596)"/>
<path d="M0 0 C-1.24372189 0.98712878 -2.49527218 1.96439905 -3.75 2.9375 C-4.44609375 3.48277344 -5.1421875 4.02804687 -5.859375 4.58984375 C-7.96092128 5.97425654 -9.54321799 6.56286987 -12 7 C-11.09515208 5.84481082 -10.1755794 4.70114594 -9.25 3.5625 C-8.73953125 2.92441406 -8.2290625 2.28632812 -7.703125 1.62890625 C-5.18201853 -0.78233549 -3.18772335 -1.59386167 0 0 Z " fill="#03C3F4" transform="translate(809,836)"/>
<path d="M0 0 C0.33 0.99 0.66 1.98 1 3 C-0.09283577 4.03295436 -1.19970579 5.05107835 -2.3125 6.0625 C-2.92738281 6.63097656 -3.54226563 7.19945312 -4.17578125 7.78515625 C-4.77777344 8.18605469 -5.37976563 8.58695313 -6 9 C-6.99 8.67 -7.98 8.34 -9 8 C-6.03 5.36 -3.06 2.72 0 0 Z " fill="#011826" transform="translate(960,796)"/>
<path d="M0 0 C0.66 0.66 1.32 1.32 2 2 C-0.97 3.65 -3.94 5.3 -7 7 C-7.66 6.34 -8.32 5.68 -9 5 C-6.03 3.35 -3.06 1.7 0 0 Z " fill="#0267E6" transform="translate(707,755)"/>
<path d="M0 0 C0 0.66 0 1.32 0 2 C-0.99 2 -1.98 2 -3 2 C-3.2475 2.61875 -3.495 3.2375 -3.75 3.875 C-5.20628639 6.35068687 -6.37812506 6.95125002 -9 8 C-9 7.01 -9 6.02 -9 5 C-7.5390625 3.61328125 -7.5390625 3.61328125 -5.625 2.3125 C-4.68527344 1.65701172 -4.68527344 1.65701172 -3.7265625 0.98828125 C-2 0 -2 0 0 0 Z " fill="#1C1D22" transform="translate(731,512)"/>
<path d="M0 0 C0.33 0 0.66 0 1 0 C1.04898437 0.92683594 1.09796875 1.85367187 1.1484375 2.80859375 C1.22320313 4.00613281 1.29796875 5.20367187 1.375 6.4375 C1.44460938 7.63246094 1.51421875 8.82742188 1.5859375 10.05859375 C1.72257812 11.02925781 1.85921875 11.99992187 2 13 C2.66 13.33 3.32 13.66 4 14 C4 14.66 4 15.32 4 16 C2.68 16.33 1.36 16.66 0 17 C0 11.39 0 5.78 0 0 Z " fill="#12141D" transform="translate(1046,462)"/>
<path d="M0 0 C0.66 0.33 1.32 0.66 2 1 C-0.97 3.64 -3.94 6.28 -7 9 C-7 6 -7 6 -5.46875 4.39453125 C-4.49421875 3.61142578 -4.49421875 3.61142578 -3.5 2.8125 C-2.8503125 2.28269531 -2.200625 1.75289062 -1.53125 1.20703125 C-1.0259375 0.80871094 -0.520625 0.41039062 0 0 Z " fill="#1026DF" transform="translate(627,822)"/>
<path d="M0 0 C4.99275057 1.27721526 7.57611908 3.17330957 11 7 C10.67 7.99 10.34 8.98 10 10 C6.66666667 6.66666667 3.33333333 3.33333333 0 0 Z " fill="#03A4E9" transform="translate(764,781)"/>
<path d="M0 0 C0.99 0 1.98 0 3 0 C3 0.66 3 1.32 3 2 C2.01 2.495 2.01 2.495 1 3 C4.63 3.33 8.26 3.66 12 4 C12 4.33 12 4.66 12 5 C7.71 5 3.42 5 -1 5 C-0.67 3.35 -0.34 1.7 0 0 Z " fill="#0390C7" transform="translate(779,750)"/>
<path d="M0 0 C-3.3 2.31 -6.6 4.62 -10 7 C-10.66 6.67 -11.32 6.34 -12 6 C-11.360625 5.731875 -10.72125 5.46375 -10.0625 5.1875 C-7.66868314 4.11332248 -7.66868314 4.11332248 -7 1 C-2.55696203 -1.27848101 -2.55696203 -1.27848101 0 0 Z " fill="#053AE8" transform="translate(418,699)"/>
<path d="M0 0 C0.33 0.66 0.66 1.32 1 2 C-0.12104533 3.31587941 -1.24696965 4.62760353 -2.375 5.9375 C-3.00148438 6.66839844 -3.62796875 7.39929688 -4.2734375 8.15234375 C-6 10 -6 10 -8 11 C-6.63629701 8.00779732 -5.05091917 5.70973471 -2.875 3.25 C-2.33617187 2.63640625 -1.79734375 2.0228125 -1.2421875 1.390625 C-0.62730469 0.70226562 -0.62730469 0.70226562 0 0 Z " fill="#02C5EF" transform="translate(819,823)"/>
<path d="M0 0 C0.33 0.66 0.66 1.32 1 2 C-0.65 3.98 -2.3 5.96 -4 8 C-4.66 7.34 -5.32 6.68 -6 6 C-4.02 4.02 -2.04 2.04 0 0 Z " fill="#02CDE8" transform="translate(891,802)"/>
<path d="M0 0 C1.39195915 4.17587745 -0.17676781 6.13474776 -2 10 C-2.33 10 -2.66 10 -3 10 C-3.36923077 4.58461538 -3.36923077 4.58461538 -1.5 1.625 C-1.005 1.08875 -0.51 0.5525 0 0 Z " fill="#0366EA" transform="translate(697,761)"/>
<path d="M0 0 C0.66 0.33 1.32 0.66 2 1 C0.02 3.31 -1.96 5.62 -4 8 C-4.99 7.67 -5.98 7.34 -7 7 C-4.69 4.69 -2.38 2.38 0 0 Z " fill="#03D8D9" transform="translate(958,738)"/>
<path d="M0 0 C-3.20336822 2.83374881 -5.78087253 3.5205537 -10 4 C-4.75 -1.425 -4.75 -1.425 0 0 Z " fill="#059ADF" transform="translate(772,720)"/>
<path d="M0 0 C1.1055189 0.93590504 2.20935453 1.87379858 3.3125 2.8125 C3.92738281 3.33457031 4.54226562 3.85664062 5.17578125 4.39453125 C6.85424679 5.87172469 8.43882034 7.40039131 10 9 C5.61633881 7.80445604 2.84621677 6.6125059 0 3 C0 2.01 0 1.02 0 0 Z " fill="#052FE1" transform="translate(178,636)"/>
<path d="M0 0 C0.66 0.66 1.32 1.32 2 2 C-0.75 6.875 -0.75 6.875 -3 8 C-3.66 7.34 -4.32 6.68 -5 6 C-4.01 5.34 -3.02 4.68 -2 4 C-0.80767387 1.94996045 -0.80767387 1.94996045 0 0 Z " fill="#EBEBEC" transform="translate(1078,503)"/>
<path d="M0 0 C0.66 0.33 1.32 0.66 2 1 C-2.82142857 7.29464286 -2.82142857 7.29464286 -7 8 C-6.02133662 6.85373678 -5.04205413 5.70800212 -4.0625 4.5625 C-3.51722656 3.92441406 -2.97195313 3.28632813 -2.41015625 2.62890625 C-1.63204305 1.73008851 -0.84063472 0.84063472 0 0 Z " fill="#001D34" transform="translate(504,484)"/>
<path d="M0 0 C2.30903272 3.98352209 1.86516528 6.50114053 1 11 C0.34 10.34 -0.32 9.68 -1 9 C-0.9765625 6.8359375 -0.9765625 6.8359375 -0.625 4.375 C-0.51414062 3.55773437 -0.40328125 2.74046875 -0.2890625 1.8984375 C-0.19367188 1.27195312 -0.09828125 0.64546875 0 0 Z " fill="#0278DB" transform="translate(294,477)"/>
<path d="M0 0 C0.33 0.66 0.66 1.32 1 2 C-2.625 7.75 -2.625 7.75 -6 10 C-4.6302836 6.00499382 -2.74277578 3.19990508 0 0 Z " fill="#1428E6" transform="translate(618,831)"/>
<path d="M0 0 C0.66 0.66 1.32 1.32 2 2 C0.8125 5.4375 0.8125 5.4375 -1 9 C-3.6875 9.9375 -3.6875 9.9375 -6 10 C-5.195625 9.0925 -4.39125 8.185 -3.5625 7.25 C-1.58857329 4.89690092 -0.36122533 3.13061954 0 0 Z " fill="#000C26" transform="translate(606,817)"/>
<path d="M0 0 C2 1 2 1 3.3125 4.3125 C3.539375 5.529375 3.76625 6.74625 4 8 C3.01 9.32 2.02 10.64 1 12 C0.67 8.04 0.34 4.08 0 0 Z " fill="#02B7F8" transform="translate(775,790)"/>
<path d="M0 0 C0.8971875 0.309375 0.8971875 0.309375 1.8125 0.625 C-1.5215947 2.81597652 -4.22929141 4.05954163 -8.1875 4.625 C-3.2421875 -0.55580357 -3.2421875 -0.55580357 0 0 Z " fill="#0689DE" transform="translate(739.1875,737.375)"/>
<path d="M0 0 C1 4 1 4 -0.25 6.75 C-0.8275 7.4925 -1.405 8.235 -2 9 C-2.99 9 -3.98 9 -5 9 C-3.35 6.03 -1.7 3.06 0 0 Z " fill="#001629" transform="translate(576,550)"/>
<path d="M0 0 C0.66 0.99 1.32 1.98 2 3 C1.34 3 0.68 3 0 3 C0.226875 3.598125 0.45375 4.19625 0.6875 4.8125 C0.790625 5.534375 0.89375 6.25625 1 7 C-0.4375 8.75 -0.4375 8.75 -2 10 C-3 8 -3 8 -2.44140625 6.0546875 C-2.15136719 5.33539063 -1.86132812 4.61609375 -1.5625 3.875 C-1.27503906 3.15054687 -0.98757813 2.42609375 -0.69140625 1.6796875 C-0.46324219 1.12539063 -0.23507812 0.57109375 0 0 Z " fill="#0268BC" transform="translate(299,460)"/>
<path d="M0 0 C0.66 0 1.32 0 2 0 C0.125 5.75 0.125 5.75 -1 8 C-1.66 8 -2.32 8 -3 8 C-2.45276317 4.62537285 -1.9451 2.91765 0 0 Z " fill="#0284D7" transform="translate(305,448)"/>
<path d="M0 0 C2 3 2 3 1.625 5.6875 C1.41875 6.450625 1.2125 7.21375 1 8 C0.01 8 -0.98 8 -2 8 C-1.125 1.125 -1.125 1.125 0 0 Z " fill="#303137" transform="translate(711,531)"/>
<path d="M0 0 C0.99 0.33 1.98 0.66 3 1 C3 1.99 3 2.98 3 4 C3.66 4 4.32 4 5 4 C5 4.99 5 5.98 5 7 C5.66 7.33 6.32 7.66 7 8 C6.01 8 5.02 8 4 8 C0 2.74285714 0 2.74285714 0 0 Z " fill="#01CFE0" transform="translate(603,491)"/>
<path d="M0 0 C1.48206495 0.254496 2.96068615 0.52911762 4.4375 0.8125 C5.67306641 1.03873047 5.67306641 1.03873047 6.93359375 1.26953125 C7.95646484 1.63111328 7.95646484 1.63111328 9 2 C9.33 2.99 9.66 3.98 10 5 C6.08788267 3.84414715 3.1254959 2.64465038 0 0 Z " fill="#0338E5" transform="translate(332,663)"/>
<path d="M0 0 C-0.66 1.32 -1.32 2.64 -2 4 C-3.65 3.67 -5.3 3.34 -7 3 C-3.375 0 -3.375 0 0 0 Z " fill="#0169DD" transform="translate(393,582)"/>
</svg>
